<?xml version="1.0" encoding="utf-8"?>
<!-- Generator: Adobe Illustrator 16.0.0, SVG Export Plug-In . SVG Version: 6.00 Build 0)  -->
<!DOCTYPE svg PUBLIC "-//W3C//DTD SVG 1.1//EN" "http://www.w3.org/Graphics/SVG/1.1/DTD/svg11.dtd">
<svg version="1.1" id="Layer_1" xmlns="http://www.w3.org/2000/svg" xmlns:xlink="http://www.w3.org/1999/xlink" x="0px" y="0px"
	 width="388.343px" height="100.609px" viewBox="0 0 388.343 100.609" enable-background="new 0 0 388.343 100.609"
	 xml:space="preserve">
<g>
	<text transform="matrix(1 0 0 1 4.7886 90.5396)" fill="#9E776A" font-family="'LucidaHandwriting-Italic'" font-size="30.9628">Join Our Mailing List</text>
	<text transform="matrix(1 0 0 1 3.6221 89.3745)" fill="#D7A88C" font-family="'LucidaHandwriting-Italic'" font-size="30.9628">Join Our Mailing List</text>
</g>
<g>
	<g>
		<path fill="#0A8268" d="M5.398,34.708h7.413c0.522,4.489,3.08,6.264,8.404,6.264c3.863,0,7.256-1.357,7.256-4.802
			c0-3.654-3.549-4.385-9.239-5.69C12.549,28.965,6.442,27.19,6.442,19.413c0-7.36,6.003-11.171,14.303-11.171
			c8.404,0,13.833,4.124,14.407,11.641h-7.256c-0.417-3.758-3.341-5.638-7.204-5.638c-4.071,0-6.734,1.723-6.734,4.385
			c0,3.027,2.61,3.915,8.144,5.115c7.673,1.67,13.938,3.498,13.938,11.537c0,7.569-6.107,11.797-14.512,11.797
			C11.401,47.079,5.659,42.59,5.398,34.708z"/>
		<path fill="#0A8268" d="M37.083,8.92h30.015v6.369H55.876v30.955h-7.569V15.289H37.083V8.92z"/>
		<path fill="#0A8268" d="M75.45,8.92h7.83l13.155,37.323h-7.882l-2.506-7.935H72.58l-2.454,7.935h-7.673L75.45,8.92z
			 M74.354,32.515h9.866l-3.341-10.753c-0.626-1.983-1.514-5.742-1.514-5.742h-0.104c0,0-0.94,3.759-1.566,5.742L74.354,32.515z"/>
		<path fill="#0A8268" d="M103.586,31.836L91.163,8.92h8.248l5.638,11.066c1.148,2.245,2.453,5.325,2.453,5.325h0.104
			c0,0,1.41-3.08,2.506-5.325l5.533-11.066h7.934l-12.423,22.916v14.407h-7.569V31.836z"/>
		<path fill="#0A8268" d="M133.81,27.66c0-11.171,6.995-19.471,18.009-19.471c11.015,0,17.957,8.3,17.957,19.471
			s-6.942,19.419-17.957,19.419C140.805,47.079,133.81,38.831,133.81,27.66z M162.05,27.66c0-7.464-3.341-13.259-10.179-13.259
			c-6.838,0-10.336,5.794-10.336,13.259c0,7.413,3.498,13.207,10.336,13.207C158.709,40.867,162.05,35.073,162.05,27.66z"/>
		<path fill="#0A8268" d="M174.944,8.92h7.674l12.423,20.828c1.201,2.036,2.61,5.22,2.61,5.22h0.104c0,0-0.209-3.863-0.209-6.473
			V8.92h7.465v37.323h-7.309l-12.736-20.619c-1.2-1.983-2.662-5.168-2.662-5.168H182.2c0,0,0.209,3.915,0.209,6.525v19.262h-7.465
			V8.92z"/>
		<path fill="#0A8268" d="M217.59,8.92h30.016v6.369h-11.224v30.955h-7.568V15.289H217.59V8.92z"/>
		<path fill="#0A8268" d="M251.417,8.92h17.122c7.203,0,12.006,4.176,12.006,10.388c0,4.385-2.036,7.726-6.839,9.031v0.157
			c3.445,0.992,5.221,2.976,5.69,7.517c0.521,5.272,0.313,9.292,1.618,9.866v0.365h-7.256c-0.939-0.417-1.044-4.594-1.357-8.613
			c-0.313-4.071-2.61-6.368-7.308-6.368h-6.107v14.981h-7.569V8.92z M258.986,25.416h8.038c4.124,0,6.16-2.14,6.16-5.115
			c0-3.028-1.932-5.272-5.951-5.272h-8.247V25.416z"/>
		<path fill="#0A8268" d="M296.987,8.92h7.83l13.154,37.323h-7.882l-2.506-7.935h-13.468l-2.453,7.935h-7.674L296.987,8.92z
			 M295.891,32.515h9.865l-3.341-10.753c-0.626-1.983-1.514-5.742-1.514-5.742h-0.104c0,0-0.939,3.759-1.565,5.742L295.891,32.515z"
			/>
		<path fill="#0A8268" d="M317.397,27.712c0-11.066,6.891-19.523,17.904-19.523c9.188,0,14.616,5.481,15.399,12.581h-7.517
			c-0.679-3.758-3.498-6.212-7.883-6.212c-6.891,0-10.179,5.742-10.179,13.154c0,7.622,3.967,13.103,10.231,13.103
			c4.437,0,7.568-2.662,8.039-6.577h7.412c-0.209,3.289-1.618,6.473-4.124,8.822c-2.558,2.401-6.159,3.967-11.327,3.967
			C324.862,47.027,317.397,38.936,317.397,27.712z"/>
		<path fill="#0A8268" d="M354.72,8.92h7.569v14.877L376.644,8.92h9.396L371.424,23.85l15.556,22.394h-8.874L366.1,28.809
			l-3.811,3.863v13.572h-7.569V8.92z"/>
	</g>
	<g>
		<g>
			<path fill="#75B591" d="M2.201,32.708h7.413c0.522,4.489,3.08,6.264,8.404,6.264c3.863,0,7.256-1.357,7.256-4.802
				c0-3.654-3.549-4.385-9.239-5.69C9.352,26.965,3.245,25.19,3.245,17.413c0-7.36,6.003-11.171,14.303-11.171
				c8.404,0,13.833,4.124,14.407,11.641h-7.256c-0.417-3.758-3.341-5.638-7.204-5.638c-4.071,0-6.734,1.723-6.734,4.385
				c0,3.027,2.61,3.915,8.144,5.115c7.673,1.67,13.938,3.498,13.938,11.537c0,7.569-6.107,11.797-14.512,11.797
				C8.204,45.079,2.461,40.59,2.201,32.708z"/>
			<path fill="#75B591" d="M33.886,6.92h30.015v6.369H52.679v30.955h-7.569V13.289H33.886V6.92z"/>
			<path fill="#75B591" d="M72.253,6.92h7.83l13.155,37.323h-7.882l-2.506-7.935H69.382l-2.454,7.935h-7.673L72.253,6.92z
				 M71.157,30.515h9.866l-3.341-10.753c-0.626-1.983-1.514-5.742-1.514-5.742h-0.104c0,0-0.94,3.759-1.566,5.742L71.157,30.515z"/>
			<path fill="#75B591" d="M100.389,29.836L87.965,6.92h8.248l5.638,11.066c1.148,2.245,2.453,5.325,2.453,5.325h0.104
				c0,0,1.41-3.08,2.506-5.325l5.533-11.066h7.934l-12.423,22.916v14.407h-7.569V29.836z"/>
			<path fill="#75B591" d="M130.613,25.66c0-11.171,6.995-19.471,18.009-19.471c11.015,0,17.957,8.3,17.957,19.471
				s-6.942,19.419-17.957,19.419C137.607,45.079,130.613,36.831,130.613,25.66z M158.853,25.66c0-7.464-3.341-13.259-10.179-13.259
				c-6.838,0-10.336,5.794-10.336,13.259c0,7.413,3.498,13.207,10.336,13.207C155.512,38.867,158.853,33.073,158.853,25.66z"/>
			<path fill="#75B591" d="M171.747,6.92h7.674l12.423,20.828c1.201,2.036,2.61,5.22,2.61,5.22h0.104c0,0-0.209-3.863-0.209-6.473
				V6.92h7.465v37.323h-7.309l-12.736-20.619c-1.2-1.983-2.662-5.168-2.662-5.168h-0.104c0,0,0.209,3.915,0.209,6.525v19.262h-7.465
				V6.92z"/>
			<path fill="#75B591" d="M214.393,6.92h30.016v6.369h-11.224v30.955h-7.568V13.289h-11.224V6.92z"/>
			<path fill="#75B591" d="M248.219,6.92h17.122c7.203,0,12.006,4.176,12.006,10.388c0,4.385-2.036,7.726-6.839,9.031v0.157
				c3.445,0.992,5.221,2.976,5.69,7.517c0.521,5.272,0.313,9.292,1.618,9.866v0.365h-7.256c-0.939-0.417-1.044-4.594-1.357-8.613
				c-0.313-4.071-2.61-6.368-7.308-6.368h-6.107v14.981h-7.569V6.92z M255.789,23.416h8.038c4.124,0,6.16-2.14,6.16-5.115
				c0-3.028-1.932-5.272-5.951-5.272h-8.247V23.416z"/>
			<path fill="#75B591" d="M293.79,6.92h7.83l13.154,37.323h-7.882l-2.506-7.935h-13.468l-2.453,7.935h-7.674L293.79,6.92z
				 M292.694,30.515h9.865l-3.341-10.753c-0.626-1.983-1.514-5.742-1.514-5.742H297.6c0,0-0.939,3.759-1.565,5.742L292.694,30.515z"
				/>
			<path fill="#75B591" d="M314.2,25.712c0-11.066,6.891-19.523,17.904-19.523c9.188,0,14.616,5.481,15.399,12.581h-7.517
				c-0.679-3.758-3.498-6.212-7.883-6.212c-6.891,0-10.179,5.742-10.179,13.154c0,7.622,3.967,13.103,10.231,13.103
				c4.437,0,7.568-2.662,8.039-6.577h7.412c-0.209,3.289-1.618,6.473-4.124,8.822c-2.558,2.401-6.159,3.967-11.327,3.967
				C321.665,45.027,314.2,36.936,314.2,25.712z"/>
			<path fill="#75B591" d="M351.523,6.92h7.569v14.877L373.447,6.92h9.396L368.227,21.85l15.556,22.394h-8.874l-12.006-17.435
				l-3.811,3.863v13.572h-7.569V6.92z"/>
		</g>
	</g>
</g>
<rect x="4.642" y="56.242" fill-rule="evenodd" clip-rule="evenodd" fill="#75B591" width="381.996" height="2.225"/>
</svg>
