<?xml version="1.0" encoding="utf-8"?>
<!-- Generator: Adobe Illustrator 16.0.0, SVG Export Plug-In . SVG Version: 6.00 Build 0)  -->
<!DOCTYPE svg PUBLIC "-//W3C//DTD SVG 1.1//EN" "http://www.w3.org/Graphics/SVG/1.1/DTD/svg11.dtd">
<svg version="1.1" id="Layer_1" xmlns="http://www.w3.org/2000/svg" xmlns:xlink="http://www.w3.org/1999/xlink" x="0px" y="0px"
	 width="385.186px" height="93.376px" viewBox="0 0 385.186 93.376" enable-background="new 0 0 385.186 93.376"
	 xml:space="preserve">
<g>
	<g>
		<path fill="#9F786A" d="M21.896,62.985L19.271,76.19c-0.935,4.67-2.436,8.088-4.503,10.254c-2.067,2.166-4.264,3.25-6.59,3.25
			c-1.203,0-2.316-0.331-3.34-0.992c-1.023-0.661-1.536-1.379-1.536-2.154c0-0.945,0.671-1.814,2.013-2.609
			c0,1.143,0.355,2.053,1.066,2.729s1.672,1.014,2.885,1.014c1.779,0,3.124-0.678,4.033-2.035c0.91-1.355,1.737-3.907,2.483-7.654
			l2.893-14.55c-1.421,0.274-2.316,0.412-2.684,0.412c-1.272,0-1.983-0.8-2.132-2.401c0.437,0.249,0.964,0.373,1.581,0.373
			c0.785,0,2.082-0.188,3.892-0.566l1.446-0.312c1.282-0.27,2.396-0.403,3.34-0.403c1.094,0,1.869,0.22,2.326,0.657
			c0.458,0.438,0.771,1.258,0.939,2.462c-0.895-0.599-1.938-0.897-3.131-0.897C23.615,62.764,22.83,62.838,21.896,62.985z"/>
		<path fill="#9F786A" d="M43.293,72.457c0.03,0.238,0.044,0.452,0.044,0.642c0,2.873-0.974,5.377-2.922,7.515
			s-4.23,3.206-6.844,3.206c-1.998,0-3.626-0.639-4.883-1.916s-1.886-2.936-1.886-4.973c0-2.316,0.812-4.324,2.438-6.024
			s3.542-2.55,5.748-2.55c0.338,0,0.696,0.045,1.074,0.135c-0.249-0.447-0.373-0.826-0.373-1.134c0-0.478,0.164-0.935,0.492-1.372
			c2.425,0.199,4.444,1.441,6.054,3.729c1.65,1.123,3.37,1.685,5.159,1.685c1.163,0,2.42-0.393,3.772-1.179l0.746,1.268
			c-1.581,1.104-3.201,1.656-4.861,1.656C45.947,73.143,44.694,72.914,43.293,72.457z M39.908,71.189
			c-0.825-0.249-1.586-0.646-2.282-1.192c-0.507-0.107-0.929-0.162-1.267-0.164c-1.69,0.002-3.188,0.762-4.495,2.282
			c-1.307,1.521-1.96,3.255-1.962,5.202c0.001,1.412,0.397,2.572,1.187,3.48c0.79,0.91,1.806,1.365,3.048,1.366
			c1.68-0.001,3.126-0.849,4.338-2.544c1.212-1.693,1.818-3.714,1.82-6.06C40.294,72.745,40.165,71.955,39.908,71.189z"/>
		<path fill="#9F786A" d="M65.465,71.244c-2.247,3.938-4.518,7.019-6.814,9.241c-2.296,2.223-4.359,3.334-6.188,3.334
			c-1.113,0-2.011-0.363-2.691-1.089s-1.021-1.681-1.021-2.864c0-0.447,0.1-1.158,0.298-2.133l0.328-1.641
			c0.487-2.365,0.73-4.025,0.73-4.98c0-0.566-0.169-1.029-0.507-1.387c1.292-0.299,2.103-0.447,2.431-0.447
			c0.735,0,1.103,0.516,1.103,1.549c0,0.766-0.144,1.862-0.432,3.293l-0.582,2.904c-0.289,1.4-0.433,2.309-0.433,2.726
			c0,1.231,0.522,1.847,1.566,1.847c1.242,0,2.897-1.045,4.965-3.135c2.067-2.09,4.071-4.74,6.009-7.947L65.465,71.244z
			 M52.195,63.737l0.208,0.014c0.666-0.029,1.623-0.365,2.871-1.007c1.247-0.642,2.224-1.296,2.93-1.962
			c-0.438,1.371-1.213,2.52-2.326,3.443c-1.69,1.412-2.833,2.117-3.429,2.117c-0.398,0-0.597-0.242-0.597-0.729
			C51.852,64.918,51.966,64.292,52.195,63.737z"/>
		<path fill="#9F786A" d="M66.271,78.092c3.529-7.465,6.7-11.197,9.513-11.197c2.197,0,3.295,2.187,3.295,6.561l0.03,1.805
			c0,2.087,0.106,3.531,0.32,4.331s0.604,1.2,1.171,1.2c0.854,0,1.826-0.681,2.915-2.043c1.088-1.361,2.86-4.1,5.315-8.216
			l1.252,0.731c-2.187,4.125-4.145,7.187-5.875,9.185c-1.73,1.998-3.281,2.997-4.652,2.997c-1.263,0-2.15-0.611-2.662-1.834
			c-0.512-1.223-0.768-3.34-0.768-6.352l-0.015-1.283c0-1.63-0.104-2.775-0.313-3.437c-0.208-0.661-0.571-0.991-1.088-0.991
			c-1.312,0-3.424,2.619-6.337,7.857c-0.716,1.283-1.178,2.107-1.387,2.476c-0.766,1.332-1.148,2.296-1.148,2.893
			c0,0.238,0.065,0.468,0.194,0.687c-0.577,0.238-1.063,0.357-1.461,0.357c-1.004,0-1.506-0.557-1.506-1.67
			c0-0.318,0.129-1.75,0.388-4.295l0.328-3.235c0.149-1.372,0.224-2.436,0.224-3.19c0-1.055-0.238-1.885-0.716-2.49
			c0.209-0.07,0.557-0.189,1.044-0.358c0.616-0.219,1.108-0.328,1.476-0.328c0.775,0,1.163,0.567,1.163,1.7
			c0,0.596-0.074,1.62-0.224,3.071c-0.03,0.318-0.06,0.622-0.089,0.909L66.271,78.092z"/>
		<path fill="#9F786A" d="M106.038,63.913c1.539-2.058,3.57-3.087,6.092-3.087c2.155,0,3.932,0.783,5.333,2.349
			c1.4,1.566,2.1,3.551,2.1,5.957c0,3.748-1.506,7.162-4.518,10.244c-3.012,3.081-6.347,4.622-10.005,4.622
			c-2.634,0-4.809-0.872-6.523-2.616c-1.715-1.745-2.572-3.955-2.572-6.629c0-2.902,0.978-5.402,2.934-7.5
			C100.834,65.155,103.221,64.042,106.038,63.913z M104.897,65.538c-1.772,0.428-3.17,1.377-4.194,2.848
			c-1.024,1.472-1.538,3.281-1.54,5.428c0.002,2.396,0.698,4.371,2.089,5.926c1.391,1.555,3.165,2.334,5.322,2.336
			c2.585-0.002,4.866-1.226,6.843-3.67c1.977-2.445,2.967-5.272,2.969-8.483c-0.002-1.868-0.494-3.438-1.476-4.71
			s-2.192-1.908-3.631-1.91c-1.459,0.002-2.725,0.597-3.797,1.783c-1.072,1.188-1.608,2.596-1.608,4.226
			c0,1.153,0.273,2.217,0.819,3.19c-1.089-0.198-1.816-0.491-2.18-0.879c-0.365-0.388-0.547-1.074-0.547-2.059
			C103.965,68.282,104.276,66.94,104.897,65.538z"/>
		<path fill="#9F786A" d="M136.158,74.259c-1.372,2.833-2.903,5.136-4.593,6.905s-3.206,2.654-4.548,2.654
			c-1.083,0-1.963-0.383-2.639-1.147c-0.676-0.765-1.014-1.759-1.014-2.979c0-1.57,0.527-4.45,1.581-8.643
			c0.288-1.132,0.433-1.847,0.433-2.145c0-0.299-0.095-0.621-0.283-0.969l2.058-0.015c0.885,0,1.327,0.343,1.327,1.026
			c0,0.427-0.289,1.652-0.865,3.676c-0.179,0.605-0.293,1.021-0.343,1.25l-0.224,0.907c-0.438,1.815-0.656,3.199-0.656,4.151
			c0,1.469,0.507,2.203,1.521,2.203c1.66,0,3.768-2.054,6.322-6.161c2.087-3.343,3.131-5.724,3.131-7.142
			c0-0.199-0.06-0.396-0.179-0.596c0.815-0.229,1.506-0.342,2.072-0.342c0.875,0,1.312,0.268,1.312,0.803
			c0,0.129-0.04,0.318-0.12,0.566c-0.04,0.148-0.134,0.51-0.283,1.086c-0.02,0.108-0.119,0.51-0.298,1.205
			c-0.129,0.485-0.224,0.873-0.283,1.16l-0.149,0.714c-0.328,1.637-0.492,3.169-0.492,4.597c0,2.183,0.527,3.273,1.581,3.273
			c2.326,0,5.278-3.272,8.857-9.818l1.253,0.743c-4.076,7.84-7.804,11.759-11.184,11.759c-2.276,0-3.415-1.973-3.415-5.92
			C136.039,76.317,136.078,75.383,136.158,74.259z"/>
		<path fill="#9F786A" d="M150.13,83.341c-0.68,0.318-1.224,0.478-1.633,0.478c-1.019,0-1.528-0.447-1.528-1.342
			c0-0.457,0.179-1.596,0.537-3.415l0.746-3.713c0.457-2.206,0.686-3.842,0.686-4.905c0-0.576-0.164-1.059-0.492-1.447
			c1.044-0.357,1.894-0.536,2.55-0.536c0.696,0,1.043,0.442,1.043,1.327c0,0.547-0.247,1.982-0.739,4.309l-0.844,4.34
			c1.877-3.648,3.766-6.484,5.668-8.507s3.627-3.034,5.177-3.034c0.546,0,1.018,0.156,1.415,0.469
			c0.397,0.313,0.596,0.693,0.596,1.141c0,0.697-0.756,1.621-2.267,2.773c-0.377-0.785-0.914-1.178-1.608-1.178
			c-1.261,0-2.869,1.342-4.824,4.026c-1.211,1.67-2.264,3.392-3.157,5.167c-0.894,1.773-1.34,3.039-1.34,3.795L150.13,83.341z"/>
		<path fill="#9F786A" d="M178.535,68.983l-1.954,9.796c-0.249,1.263-0.373,2.251-0.373,2.968c0,0.745,0.313,1.326,0.939,1.744
			c-1.084,0.338-1.929,0.507-2.535,0.507c-1.014,0-1.521-0.407-1.521-1.223c0-0.904,0.298-2.511,0.895-4.816l3.295-12.704
			l-0.611-1.879c-0.696-2.098-1.372-3.375-2.028-3.832c0.944-0.605,1.784-0.91,2.52-0.91c0.547,0,1.016,0.431,1.409,1.291
			c0.393,0.859,1.111,3.049,2.155,6.568c0.208,0.705,0.382,1.262,0.521,1.67l0.269,0.745c1.511,4.403,2.828,6.605,3.952,6.605
			c1.223,0,2.925-1.782,5.107-5.346c2.182-3.563,3.368-6.493,3.556-8.79c1.104-0.367,1.919-0.552,2.445-0.552
			c0.974,0,1.462,0.537,1.462,1.61c0,0.357-0.115,1.352-0.344,2.982c-0.219,1.481-0.373,2.669-0.462,3.564l-1.028,9.721
			c-0.07,0.687-0.105,1.353-0.105,1.998c0,1.979,0.398,3.211,1.193,3.698c-1.021,0.716-1.893,1.073-2.615,1.073
			c-1.18,0-1.769-1.227-1.769-3.683c0-0.983,0.075-2.187,0.224-3.608l1.297-12.331c-1.183,3.559-2.708,6.588-4.577,9.088
			c-1.869,2.501-3.539,3.751-5.01,3.751c-1.153,0-2.292-0.863-3.415-2.588C180.304,74.377,179.34,72.004,178.535,68.983z"/>
		<path fill="#9F786A" d="M214.709,74.335c-1.273,2.634-2.844,4.874-4.71,6.718s-3.491,2.766-4.874,2.766
			c-1.055,0-1.898-0.47-2.53-1.409s-0.948-2.189-0.948-3.751c0-3.11,0.943-5.85,2.828-8.215c1.887-2.366,4.068-3.549,6.546-3.549
			c1.503,0,3.13,0.467,4.882,1.401c0.258-0.925,1.312-1.387,3.16-1.387c0.119,0,0.313,0.005,0.582,0.015
			c-0.566,0.865-0.999,2.048-1.297,3.549l-0.254,1.268c-0.289,1.412-0.433,3.062-0.433,4.95c0,2.177,0.507,3.266,1.521,3.266
			c1.074,0,2.543-0.897,4.406-2.691c1.864-1.794,3.695-4.078,5.495-6.852l1.163,0.806c-1.84,3.279-3.941,6.016-6.308,8.208
			s-4.398,3.288-6.099,3.288c-2.146,0-3.221-1.789-3.221-5.368C214.619,76.602,214.649,75.598,214.709,74.335z M215.41,70.772
			c-2.091-1.362-3.828-2.043-5.211-2.043c-1.504,0-2.803,0.912-3.898,2.736c-1.094,1.824-1.643,3.988-1.643,6.493
			c0,2.009,0.658,3.013,1.972,3.013c1.423,0,4.146-3.122,8.167-9.365C214.848,71.527,215.051,71.249,215.41,70.772z"/>
		<path fill="#9F786A" d="M243.771,71.244c-2.247,3.938-4.519,7.019-6.814,9.241s-4.358,3.334-6.188,3.334
			c-1.113,0-2.01-0.363-2.691-1.089c-0.68-0.726-1.021-1.681-1.021-2.864c0-0.447,0.1-1.158,0.299-2.133l0.328-1.641
			c0.486-2.365,0.73-4.025,0.73-4.98c0-0.566-0.169-1.029-0.507-1.387c1.292-0.299,2.103-0.447,2.431-0.447
			c0.735,0,1.104,0.516,1.104,1.549c0,0.766-0.145,1.862-0.433,3.293l-0.581,2.904c-0.289,1.4-0.434,2.309-0.434,2.726
			c0,1.231,0.522,1.847,1.566,1.847c1.242,0,2.897-1.045,4.965-3.135c2.068-2.09,4.071-4.74,6.01-7.947L243.771,71.244z
			 M230.5,63.737l0.209,0.014c0.666-0.029,1.622-0.365,2.87-1.007c1.247-0.642,2.224-1.296,2.93-1.962
			c-0.438,1.371-1.213,2.52-2.326,3.443c-1.69,1.412-2.833,2.117-3.429,2.117c-0.398,0-0.598-0.242-0.598-0.729
			C230.156,64.918,230.271,64.292,230.5,63.737z"/>
		<path fill="#9F786A" d="M256.162,71.293c-2.059,3.906-4.126,6.971-6.203,9.192c-2.078,2.222-3.917,3.333-5.518,3.333
			c-1.163,0-2.103-0.449-2.818-1.35c-0.715-0.899-1.073-2.075-1.073-3.526c0-0.815,0.149-1.968,0.447-3.46l2.968-14.94
			c-0.389,0.06-0.727,0.089-1.015,0.089c-2.286,0-3.429-0.953-3.429-2.862v-0.343c1.192,0.676,2.539,1.014,4.04,1.014
			s2.813-0.373,3.937-1.118l-3.459,17.938c-0.309,1.609-0.463,2.719-0.463,3.324c0,1.68,0.617,2.521,1.85,2.521
			c1.193,0,2.393-0.673,3.601-2.021s3.188-4.217,5.942-8.611L256.162,71.293z"/>
		<path fill="#9F786A" d="M269.715,71.244c-2.246,3.938-4.518,7.019-6.814,9.241c-2.295,2.223-4.358,3.334-6.188,3.334
			c-1.113,0-2.011-0.363-2.691-1.089S253,81.049,253,79.866c0-0.447,0.1-1.158,0.299-2.133l0.328-1.641
			c0.486-2.365,0.73-4.025,0.73-4.98c0-0.566-0.17-1.029-0.508-1.387c1.293-0.299,2.104-0.447,2.432-0.447
			c0.734,0,1.103,0.516,1.103,1.549c0,0.766-0.144,1.862-0.433,3.293l-0.581,2.904c-0.288,1.4-0.433,2.309-0.433,2.726
			c0,1.231,0.521,1.847,1.566,1.847c1.242,0,2.896-1.045,4.965-3.135c2.067-2.09,4.07-4.74,6.01-7.947L269.715,71.244z
			 M256.445,63.737l0.208,0.014c0.666-0.029,1.622-0.365,2.87-1.007s2.225-1.296,2.93-1.962c-0.438,1.371-1.213,2.52-2.326,3.443
			c-1.689,1.412-2.832,2.117-3.429,2.117c-0.397,0-0.597-0.242-0.597-0.729C256.102,64.918,256.216,64.292,256.445,63.737z"/>
		<path fill="#9F786A" d="M270.52,78.092c3.529-7.465,6.701-11.197,9.514-11.197c2.197,0,3.295,2.187,3.295,6.561l0.031,1.805
			c0,2.087,0.105,3.531,0.32,4.331c0.213,0.8,0.604,1.2,1.17,1.2c0.855,0,1.826-0.681,2.916-2.043
			c1.088-1.361,2.859-4.1,5.314-8.216l1.254,0.731c-2.188,4.125-4.146,7.187-5.875,9.185c-1.73,1.998-3.281,2.997-4.652,2.997
			c-1.264,0-2.15-0.611-2.662-1.834s-0.768-3.34-0.768-6.352l-0.016-1.283c0-1.63-0.104-2.775-0.312-3.437s-0.572-0.991-1.088-0.991
			c-1.312,0-3.426,2.619-6.338,7.857c-0.717,1.283-1.178,2.107-1.387,2.476c-0.766,1.332-1.148,2.296-1.148,2.893
			c0,0.238,0.064,0.468,0.193,0.687c-0.576,0.238-1.062,0.357-1.461,0.357c-1.004,0-1.506-0.557-1.506-1.67
			c0-0.318,0.129-1.75,0.389-4.295l0.328-3.235c0.148-1.372,0.223-2.436,0.223-3.19c0-1.055-0.238-1.885-0.716-2.49
			c0.208-0.07,0.558-0.189,1.044-0.358c0.617-0.219,1.107-0.328,1.477-0.328c0.775,0,1.162,0.567,1.162,1.7
			c0,0.596-0.074,1.62-0.223,3.071c-0.029,0.318-0.061,0.622-0.09,0.909L270.52,78.092z"/>
		<path fill="#9F786A" d="M302.4,74.485c-0.964,1.988-2.361,3.732-4.189,5.233c-1.829,1.501-3.47,2.251-4.921,2.251
			c-1.084,0-1.969-0.367-2.654-1.104c-0.686-0.734-1.029-1.689-1.029-2.862c0-2.743,1.044-5.28,3.132-7.612
			c2.088-2.331,4.363-3.496,6.829-3.496c1.272,0,2.645,0.363,4.115,1.088c0.199-0.954,0.487-1.555,0.865-1.805
			c0.378-0.248,1.337-0.451,2.878-0.611c-0.775,1.562-1.517,5.279-2.222,11.154l-0.194,1.521c4.265-2.564,7.555-5.184,9.871-7.858
			l1.253,0.791c-2.188,2.854-5.93,5.965-11.229,9.334c-0.029,0.388-0.05,0.676-0.06,0.865c-0.148,2.494-0.412,4.334-0.79,5.517
			s-1.059,2.306-2.043,3.37c-1.929,2.077-4.274,3.116-7.038,3.116c-1.481,0-2.684-0.351-3.608-1.052
			c-0.924-0.7-1.387-1.607-1.387-2.721c0-1.084,0.4-2.033,1.2-2.848c0.801-0.815,2.304-1.81,4.511-2.982
			c1.461-0.766,3.524-1.908,6.188-3.43L302.4,74.485z M303.161,70.608c-1.293-1.372-2.714-2.059-4.265-2.059
			c-1.472,0-2.858,0.922-4.16,2.767c-1.303,1.844-1.953,3.805-1.953,5.882c0,1.472,0.541,2.207,1.625,2.207
			c1.054,0,2.453-0.877,4.197-2.632C300.351,75.018,301.868,72.963,303.161,70.608z M301.729,82.328
			c-0.576,0.349-1.744,1.014-3.504,1.998c-3.439,1.938-5.159,3.647-5.159,5.13c0,0.655,0.278,1.197,0.835,1.625
			c0.557,0.427,1.268,0.641,2.132,0.641C299.831,91.721,301.729,88.59,301.729,82.328z"/>
		<path fill="#9F786A" d="M338.216,80.196c-0.328,0.974-0.716,1.685-1.163,2.132s-1.578,0.837-3.393,1.171
			c-1.813,0.332-3.729,0.499-5.748,0.499c-3.171,0-4.756-1.083-4.756-3.251c0-0.605,0.169-1.754,0.507-3.443l2.907-14.643
			c0.169-0.846,0.254-1.452,0.254-1.82c0-0.338-0.119-0.65-0.358-0.939c1.322-0.496,2.242-0.745,2.759-0.745
			c0.616,0,0.925,0.353,0.925,1.059c0,0.179-0.164,1.054-0.492,2.624l-2.595,13.078c-0.378,1.878-0.566,3.186-0.566,3.921
			c0,1.243,1.377,1.864,4.13,1.864C333.081,81.702,335.611,81.2,338.216,80.196z"/>
		<path fill="#9F786A" d="M358.659,71.244c-2.247,3.938-4.518,7.019-6.814,9.241c-2.296,2.223-4.359,3.334-6.188,3.334
			c-1.114,0-2.011-0.363-2.691-1.089c-0.682-0.726-1.021-1.681-1.021-2.864c0-0.447,0.099-1.158,0.298-2.133l0.328-1.641
			c0.487-2.365,0.73-4.025,0.73-4.98c0-0.566-0.169-1.029-0.507-1.387c1.292-0.299,2.103-0.447,2.431-0.447
			c0.735,0,1.104,0.516,1.104,1.549c0,0.766-0.145,1.862-0.433,3.293l-0.582,2.904c-0.288,1.4-0.432,2.309-0.432,2.726
			c0,1.231,0.521,1.847,1.565,1.847c1.242,0,2.897-1.045,4.965-3.135c2.068-2.09,4.071-4.74,6.01-7.947L358.659,71.244z
			 M345.389,63.737l0.209,0.014c0.665-0.029,1.622-0.365,2.87-1.007c1.247-0.642,2.224-1.296,2.93-1.962
			c-0.438,1.371-1.213,2.52-2.326,3.443c-1.689,1.412-2.833,2.117-3.43,2.117c-0.397,0-0.596-0.242-0.596-0.729
			C345.046,64.918,345.16,64.292,345.389,63.737z"/>
		<path fill="#9F786A" d="M363.386,78.198c0.338,0.755,0.507,1.476,0.507,2.162c0,1.521-0.636,2.846-1.908,3.973
			c-1.272,1.129-2.764,1.693-4.474,1.693c-1.004,0-1.858-0.26-2.564-0.775c-0.706-0.518-1.059-1.139-1.059-1.864
			c0-0.775,0.484-1.561,1.454-2.356c0.969-0.795,2.592-1.738,4.868-2.832l-1.193-1.924c-1.451-2.336-2.177-4.16-2.177-5.473
			c0-1.889,1.099-3.409,3.296-4.562c1.352,0.517,2.027,1.168,2.027,1.953c0,1.113-0.859,2.182-2.579,3.206l1.699,3.132l1.327,2.415
			c1.898-1.134,3.33-2.104,4.295-2.915c0.964-0.811,2.182-2.061,3.652-3.75l1.193,0.73
			C369.613,73.874,366.825,76.268,363.386,78.198z M360.851,79.54c-2.922,1.57-4.384,2.788-4.384,3.652
			c0,0.815,0.592,1.223,1.774,1.223c0.875,0,1.586-0.295,2.133-0.887s0.82-1.354,0.82-2.289
			C361.194,80.682,361.08,80.116,360.851,79.54z"/>
		<path fill="#9F786A" d="M378.923,77.542c0.269,0.486,0.402,0.914,0.402,1.281c0,0.975-0.822,2.051-2.468,3.229
			s-3.144,1.768-4.495,1.768c-1.193,0-2.165-0.531-2.915-1.596c-0.751-1.063-1.126-2.436-1.126-4.115
			c0-1.869,0.492-4.527,1.476-7.978l0.687-2.505h-2.521c-1.054,0-1.894,0.148-2.52,0.447c0.576-1.047,1.054-1.704,1.432-1.971
			s1.019-0.4,1.923-0.4h2.252l0.298-1.031c0.458-1.535,1.004-2.59,1.641-3.164c0.636-0.572,1.591-0.859,2.863-0.859
			c0.148,0,0.388,0.01,0.716,0.029c-0.775,0.998-1.581,2.673-2.416,5.025h7.873c1.382,0,2.436-0.18,3.161-0.538
			c-0.249,1.019-0.579,1.683-0.991,1.995c-0.413,0.311-1.181,0.467-2.305,0.467h-8.38c-0.099,0.328-0.174,0.572-0.224,0.73
			c-1.202,4.096-1.804,7.188-1.804,9.274c0,2.307,0.83,3.46,2.49,3.46c0.854,0,1.786-0.363,2.796-1.089
			C377.777,79.276,378.495,78.456,378.923,77.542z"/>
	</g>
	<g>
		<path fill="#D8A98D" d="M20.745,61.835l-2.624,13.206c-0.935,4.67-2.436,8.087-4.503,10.254c-2.067,2.166-4.264,3.248-6.59,3.248
			c-1.203,0-2.316-0.33-3.34-0.99c-1.023-0.662-1.536-1.38-1.536-2.155c0-0.944,0.671-1.814,2.013-2.609
			c0,1.144,0.355,2.052,1.066,2.729c0.71,0.676,1.672,1.015,2.885,1.015c1.779,0,3.124-0.68,4.033-2.035
			c0.91-1.357,1.737-3.908,2.483-7.655l2.893-14.55c-1.421,0.275-2.316,0.412-2.684,0.412c-1.272,0-1.983-0.801-2.132-2.4
			c0.437,0.248,0.964,0.372,1.581,0.372c0.785,0,2.082-0.188,3.892-0.566l1.446-0.313c1.282-0.268,2.396-0.402,3.34-0.402
			c1.094,0,1.869,0.219,2.326,0.656c0.458,0.438,0.771,1.26,0.939,2.463c-0.895-0.598-1.938-0.897-3.131-0.897
			C22.465,61.615,21.68,61.688,20.745,61.835z"/>
		<path fill="#D8A98D" d="M42.143,71.307c0.03,0.238,0.044,0.452,0.044,0.641c0,2.873-0.974,5.379-2.922,7.516
			s-4.23,3.205-6.844,3.205c-1.998,0-3.626-0.638-4.883-1.916c-1.257-1.276-1.886-2.934-1.886-4.973
			c0-2.315,0.812-4.324,2.438-6.023s3.542-2.55,5.748-2.55c0.338,0,0.696,0.045,1.074,0.134c-0.249-0.447-0.373-0.824-0.373-1.133
			c0-0.477,0.164-0.934,0.492-1.372c2.425,0.199,4.444,1.442,6.054,3.728c1.65,1.124,3.37,1.686,5.159,1.686
			c1.163,0,2.42-0.393,3.772-1.178l0.746,1.268c-1.581,1.104-3.201,1.654-4.861,1.654C44.796,71.993,43.544,71.764,42.143,71.307z
			 M38.758,70.04c-0.825-0.248-1.586-0.646-2.282-1.193c-0.507-0.107-0.929-0.162-1.267-0.164c-1.69,0.002-3.188,0.764-4.495,2.283
			c-1.307,1.52-1.96,3.254-1.962,5.203c0.001,1.411,0.397,2.571,1.187,3.48c0.79,0.908,1.806,1.363,3.048,1.365
			c1.68-0.002,3.126-0.85,4.338-2.543c1.212-1.695,1.818-3.715,1.82-6.061C39.144,71.595,39.015,70.805,38.758,70.04z"/>
		<path fill="#D8A98D" d="M64.315,70.094c-2.247,3.938-4.518,7.019-6.814,9.241c-2.296,2.223-4.359,3.333-6.188,3.333
			c-1.113,0-2.011-0.362-2.691-1.088c-0.681-0.727-1.021-1.68-1.021-2.863c0-0.447,0.1-1.158,0.298-2.133l0.328-1.641
			c0.487-2.367,0.73-4.027,0.73-4.982c0-0.566-0.169-1.028-0.507-1.387c1.292-0.297,2.103-0.446,2.431-0.446
			c0.735,0,1.103,0.517,1.103,1.549c0,0.765-0.144,1.862-0.432,3.292l-0.582,2.904c-0.289,1.4-0.433,2.31-0.433,2.727
			c0,1.232,0.522,1.848,1.566,1.848c1.242,0,2.897-1.045,4.965-3.136c2.067-2.091,4.071-4.739,6.009-7.947L64.315,70.094z
			 M51.044,62.586l0.208,0.016c0.666-0.03,1.623-0.366,2.871-1.008c1.247-0.642,2.224-1.296,2.93-1.963
			c-0.438,1.372-1.213,2.521-2.326,3.445c-1.69,1.411-2.833,2.117-3.429,2.117c-0.398,0-0.597-0.244-0.597-0.73
			C50.701,63.768,50.815,63.143,51.044,62.586z"/>
		<path fill="#D8A98D" d="M65.12,76.944c3.529-7.466,6.7-11.199,9.513-11.199c2.197,0,3.295,2.188,3.295,6.562l0.03,1.804
			c0,2.088,0.106,3.531,0.32,4.332s0.604,1.2,1.171,1.2c0.854,0,1.826-0.681,2.915-2.042c1.088-1.362,2.86-4.102,5.315-8.217
			l1.252,0.73c-2.187,4.126-4.145,7.188-5.875,9.186c-1.73,1.998-3.281,2.997-4.652,2.997c-1.263,0-2.15-0.611-2.662-1.834
			c-0.512-1.223-0.768-3.341-0.768-6.353l-0.015-1.281c0-1.631-0.104-2.776-0.313-3.438c-0.208-0.661-0.571-0.992-1.088-0.992
			c-1.312,0-3.424,2.62-6.337,7.858c-0.716,1.282-1.178,2.108-1.387,2.476c-0.766,1.332-1.148,2.296-1.148,2.893
			c0,0.238,0.065,0.467,0.194,0.686c-0.577,0.238-1.063,0.357-1.461,0.357c-1.004,0-1.506-0.556-1.506-1.67
			c0-0.317,0.129-1.749,0.388-4.294l0.328-3.235c0.149-1.372,0.224-2.436,0.224-3.191c0-1.053-0.238-1.883-0.716-2.49
			c0.209-0.068,0.557-0.188,1.044-0.357c0.616-0.219,1.108-0.328,1.476-0.328c0.775,0,1.163,0.566,1.163,1.699
			c0,0.598-0.074,1.621-0.224,3.072c-0.03,0.318-0.06,0.621-0.089,0.91L65.12,76.944z"/>
		<path fill="#D8A98D" d="M104.888,62.763c1.539-2.058,3.57-3.087,6.092-3.087c2.155,0,3.932,0.783,5.333,2.349
			c1.4,1.565,2.1,3.552,2.1,5.957c0,3.747-1.506,7.162-4.518,10.243c-3.012,3.082-6.347,4.623-10.005,4.623
			c-2.634,0-4.809-0.873-6.523-2.617s-2.572-3.953-2.572-6.627c0-2.903,0.978-5.403,2.934-7.501
			C99.684,64.006,102.07,62.893,104.888,62.763z M103.747,64.388c-1.772,0.428-3.17,1.377-4.194,2.849
			c-1.024,1.471-1.538,3.279-1.54,5.428c0.002,2.395,0.698,4.371,2.089,5.926c1.391,1.555,3.165,2.332,5.322,2.334
			c2.585-0.002,4.866-1.225,6.843-3.67c1.977-2.443,2.967-5.271,2.969-8.482c-0.002-1.869-0.494-3.438-1.476-4.71
			s-2.192-1.908-3.631-1.91c-1.459,0.002-2.725,0.597-3.797,1.783c-1.072,1.187-1.608,2.596-1.608,4.226
			c0,1.153,0.273,2.217,0.819,3.191c-1.089-0.199-1.816-0.492-2.18-0.88c-0.365-0.388-0.547-1.073-0.547-2.058
			C102.815,67.131,103.125,65.79,103.747,64.388z"/>
		<path fill="#D8A98D" d="M135.008,73.11c-1.372,2.834-2.903,5.135-4.593,6.904c-1.69,1.771-3.206,2.654-4.548,2.654
			c-1.083,0-1.963-0.382-2.639-1.146c-0.676-0.765-1.014-1.758-1.014-2.98c0-1.568,0.527-4.449,1.581-8.641
			c0.288-1.133,0.433-1.848,0.433-2.146s-0.095-0.621-0.283-0.969l2.058-0.015c0.885,0,1.327,0.342,1.327,1.026
			c0,0.427-0.289,1.651-0.865,3.675c-0.179,0.605-0.293,1.022-0.343,1.25l-0.224,0.908c-0.438,1.815-0.656,3.199-0.656,4.152
			c0,1.468,0.507,2.201,1.521,2.201c1.66,0,3.768-2.053,6.322-6.16c2.087-3.343,3.131-5.723,3.131-7.143
			c0-0.197-0.06-0.396-0.179-0.595c0.815-0.228,1.506-0.343,2.072-0.343c0.875,0,1.312,0.269,1.312,0.804
			c0,0.13-0.04,0.317-0.12,0.565c-0.04,0.148-0.134,0.512-0.283,1.086c-0.02,0.109-0.119,0.512-0.298,1.205
			c-0.129,0.486-0.224,0.873-0.283,1.16l-0.149,0.715c-0.328,1.637-0.492,3.169-0.492,4.598c0,2.182,0.527,3.273,1.581,3.273
			c2.326,0,5.278-3.273,8.857-9.82l1.253,0.744c-4.076,7.84-7.804,11.76-11.184,11.76c-2.276,0-3.415-1.974-3.415-5.921
			C134.888,75.168,134.928,74.233,135.008,73.11z"/>
		<path fill="#D8A98D" d="M148.979,82.192c-0.68,0.318-1.224,0.477-1.633,0.477c-1.019,0-1.528-0.447-1.528-1.342
			c0-0.457,0.179-1.595,0.537-3.414l0.746-3.713c0.457-2.207,0.686-3.842,0.686-4.906c0-0.576-0.164-1.059-0.492-1.445
			c1.044-0.358,1.894-0.537,2.55-0.537c0.696,0,1.043,0.442,1.043,1.327c0,0.546-0.247,1.983-0.739,4.31l-0.844,4.338
			c1.877-3.647,3.766-6.482,5.668-8.506s3.627-3.035,5.177-3.035c0.546,0,1.018,0.157,1.415,0.471
			c0.397,0.312,0.596,0.693,0.596,1.141c0,0.695-0.756,1.62-2.267,2.773c-0.377-0.785-0.914-1.178-1.608-1.178
			c-1.261,0-2.869,1.342-4.824,4.025c-1.211,1.67-2.264,3.393-3.157,5.166c-0.894,1.775-1.34,3.04-1.34,3.795L148.979,82.192z"/>
		<path fill="#D8A98D" d="M177.385,67.833l-1.954,9.797c-0.249,1.262-0.373,2.252-0.373,2.967c0,0.746,0.313,1.328,0.939,1.745
			c-1.084,0.337-1.929,0.507-2.535,0.507c-1.014,0-1.521-0.408-1.521-1.223c0-0.904,0.298-2.51,0.895-4.816l3.295-12.704
			l-0.611-1.879c-0.696-2.097-1.372-3.374-2.028-3.832c0.944-0.606,1.784-0.909,2.52-0.909c0.547,0,1.016,0.43,1.409,1.289
			c0.393,0.86,1.111,3.05,2.155,6.568c0.208,0.707,0.382,1.263,0.521,1.67l0.269,0.746c1.511,4.404,2.828,6.605,3.952,6.605
			c1.223,0,2.925-1.781,5.107-5.346c2.182-3.563,3.367-6.494,3.556-8.79c1.104-0.368,1.919-0.552,2.445-0.552
			c0.974,0,1.462,0.537,1.462,1.611c0,0.357-0.115,1.352-0.344,2.981c-0.219,1.481-0.373,2.669-0.462,3.563l-1.028,9.723
			c-0.07,0.686-0.105,1.352-0.105,1.998c0,1.979,0.398,3.211,1.193,3.697c-1.021,0.716-1.893,1.074-2.615,1.074
			c-1.179,0-1.769-1.229-1.769-3.684c0-0.984,0.075-2.187,0.224-3.608l1.297-12.331c-1.183,3.559-2.709,6.588-4.578,9.088
			c-1.869,2.5-3.539,3.75-5.01,3.75c-1.153,0-2.292-0.861-3.415-2.587C179.154,73.228,178.19,70.855,177.385,67.833z"/>
		<path fill="#D8A98D" d="M213.559,73.186c-1.273,2.635-2.844,4.873-4.71,6.717s-3.491,2.766-4.874,2.766
			c-1.055,0-1.898-0.469-2.53-1.408s-0.948-2.189-0.948-3.75c0-3.111,0.943-5.85,2.828-8.217c1.887-2.365,4.068-3.549,6.546-3.549
			c1.503,0,3.13,0.468,4.882,1.402c0.258-0.925,1.312-1.387,3.16-1.387c0.119,0,0.313,0.005,0.582,0.015
			c-0.566,0.865-0.999,2.048-1.297,3.549l-0.254,1.268c-0.289,1.411-0.433,3.062-0.433,4.95c0,2.178,0.507,3.266,1.521,3.266
			c1.074,0,2.543-0.896,4.406-2.691c1.864-1.794,3.695-4.078,5.495-6.852l1.163,0.805c-1.84,3.281-3.941,6.018-6.308,8.209
			s-4.398,3.288-6.099,3.288c-2.146,0-3.221-1.79-3.221-5.368C213.469,75.452,213.499,74.448,213.559,73.186z M214.26,69.622
			c-2.091-1.361-3.828-2.043-5.211-2.043c-1.504,0-2.803,0.912-3.898,2.736c-1.094,1.824-1.643,3.989-1.643,6.494
			c0,2.008,0.658,3.012,1.972,3.012c1.423,0,4.146-3.121,8.167-9.363C213.697,70.377,213.9,70.099,214.26,69.622z"/>
		<path fill="#D8A98D" d="M242.62,70.094c-2.247,3.938-4.519,7.019-6.814,9.241s-4.358,3.333-6.188,3.333
			c-1.113,0-2.01-0.362-2.691-1.088c-0.68-0.727-1.021-1.68-1.021-2.863c0-0.447,0.1-1.158,0.299-2.133l0.328-1.641
			c0.486-2.367,0.73-4.027,0.73-4.982c0-0.566-0.169-1.028-0.507-1.387c1.292-0.297,2.103-0.446,2.431-0.446
			c0.735,0,1.104,0.517,1.104,1.549c0,0.765-0.145,1.862-0.433,3.292l-0.581,2.904c-0.289,1.4-0.434,2.31-0.434,2.727
			c0,1.232,0.522,1.848,1.566,1.848c1.242,0,2.897-1.045,4.965-3.136c2.068-2.091,4.071-4.739,6.01-7.947L242.62,70.094z
			 M229.35,62.586l0.209,0.016c0.666-0.03,1.622-0.366,2.87-1.008c1.247-0.642,2.224-1.296,2.93-1.963
			c-0.438,1.372-1.213,2.521-2.326,3.445c-1.69,1.411-2.833,2.117-3.429,2.117c-0.398,0-0.598-0.244-0.598-0.73
			C229.006,63.768,229.121,63.143,229.35,62.586z"/>
		<path fill="#D8A98D" d="M255.012,70.144c-2.059,3.907-4.126,6.971-6.203,9.192c-2.078,2.222-3.917,3.332-5.518,3.332
			c-1.163,0-2.103-0.449-2.818-1.349c-0.715-0.899-1.073-2.075-1.073-3.526c0-0.814,0.149-1.969,0.447-3.459l2.968-14.941
			c-0.389,0.06-0.727,0.09-1.015,0.09c-2.286,0-3.429-0.955-3.429-2.863v-0.343c1.192,0.677,2.539,1.014,4.04,1.014
			s2.813-0.372,3.937-1.118l-3.459,17.938c-0.309,1.611-0.463,2.719-0.463,3.326c0,1.68,0.617,2.52,1.85,2.52
			c1.193,0,2.393-0.674,3.601-2.021s3.188-4.218,5.942-8.611L255.012,70.144z"/>
		<path fill="#D8A98D" d="M268.564,70.094c-2.246,3.938-4.518,7.019-6.814,9.241c-2.295,2.223-4.358,3.333-6.188,3.333
			c-1.113,0-2.011-0.362-2.691-1.088c-0.681-0.727-1.021-1.68-1.021-2.863c0-0.447,0.1-1.158,0.299-2.133l0.328-1.641
			c0.486-2.367,0.73-4.027,0.73-4.982c0-0.566-0.17-1.028-0.508-1.387c1.293-0.297,2.104-0.446,2.432-0.446
			c0.734,0,1.103,0.517,1.103,1.549c0,0.765-0.144,1.862-0.433,3.292l-0.581,2.904c-0.288,1.4-0.433,2.31-0.433,2.727
			c0,1.232,0.521,1.848,1.566,1.848c1.242,0,2.896-1.045,4.965-3.136c2.067-2.091,4.07-4.739,6.009-7.947L268.564,70.094z
			 M255.295,62.586l0.208,0.016c0.666-0.03,1.622-0.366,2.87-1.008s2.225-1.296,2.93-1.963c-0.438,1.372-1.213,2.521-2.326,3.445
			c-1.689,1.411-2.832,2.117-3.429,2.117c-0.397,0-0.597-0.244-0.597-0.73C254.951,63.768,255.065,63.143,255.295,62.586z"/>
		<path fill="#D8A98D" d="M269.369,76.944c3.529-7.466,6.701-11.199,9.514-11.199c2.197,0,3.295,2.188,3.295,6.562l0.031,1.804
			c0,2.088,0.105,3.531,0.32,4.332c0.213,0.801,0.604,1.2,1.17,1.2c0.855,0,1.826-0.681,2.916-2.042
			c1.088-1.362,2.859-4.102,5.314-8.217l1.254,0.73c-2.188,4.126-4.146,7.188-5.875,9.186c-1.73,1.998-3.281,2.997-4.652,2.997
			c-1.264,0-2.15-0.611-2.662-1.834s-0.768-3.341-0.768-6.353l-0.016-1.281c0-1.631-0.104-2.776-0.312-3.438
			s-0.572-0.992-1.088-0.992c-1.312,0-3.426,2.62-6.338,7.858c-0.717,1.282-1.178,2.108-1.387,2.476
			c-0.766,1.332-1.148,2.296-1.148,2.893c0,0.238,0.064,0.467,0.193,0.686c-0.576,0.238-1.062,0.357-1.461,0.357
			c-1.004,0-1.506-0.556-1.506-1.67c0-0.317,0.129-1.749,0.388-4.294l0.328-3.235c0.149-1.372,0.224-2.436,0.224-3.191
			c0-1.053-0.238-1.883-0.716-2.49c0.209-0.068,0.557-0.188,1.044-0.357c0.617-0.219,1.107-0.328,1.477-0.328
			c0.775,0,1.162,0.566,1.162,1.699c0,0.598-0.074,1.621-0.223,3.072c-0.029,0.318-0.061,0.621-0.09,0.91L269.369,76.944z"/>
		<path fill="#D8A98D" d="M301.25,73.334c-0.964,1.988-2.361,3.733-4.189,5.234c-1.829,1.501-3.47,2.252-4.921,2.252
			c-1.084,0-1.969-0.368-2.654-1.104c-0.686-0.736-1.029-1.69-1.029-2.863c0-2.744,1.044-5.281,3.132-7.612s4.363-3.497,6.829-3.497
			c1.272,0,2.645,0.363,4.115,1.09c0.199-0.955,0.487-1.557,0.865-1.805s1.337-0.453,2.878-0.611
			c-0.775,1.561-1.517,5.278-2.222,11.153l-0.194,1.521c4.265-2.564,7.555-5.184,9.871-7.857l1.253,0.79
			c-2.188,2.853-5.93,5.964-11.229,9.334c-0.029,0.388-0.05,0.677-0.06,0.864c-0.148,2.496-0.412,4.334-0.79,5.518
			s-1.059,2.307-2.043,3.37c-1.929,2.077-4.274,3.116-7.038,3.116c-1.481,0-2.684-0.351-3.608-1.051
			c-0.924-0.701-1.387-1.608-1.387-2.722c0-1.083,0.4-2.033,1.2-2.849c0.801-0.814,2.304-1.809,4.511-2.981
			c1.461-0.766,3.524-1.909,6.188-3.43L301.25,73.334z M302.011,69.458c-1.293-1.371-2.714-2.057-4.265-2.057
			c-1.472,0-2.858,0.922-4.16,2.766c-1.303,1.844-1.953,3.805-1.953,5.883c0,1.471,0.541,2.206,1.625,2.206
			c1.054,0,2.453-0.877,4.197-2.632C299.2,73.87,300.718,71.814,302.011,69.458z M300.579,81.178
			c-0.576,0.348-1.744,1.014-3.504,1.998c-3.439,1.938-5.159,3.648-5.159,5.129c0,0.656,0.278,1.198,0.835,1.625
			c0.557,0.428,1.268,0.642,2.132,0.642C298.681,90.572,300.579,87.44,300.579,81.178z"/>
		<path fill="#D8A98D" d="M337.065,79.045c-0.328,0.975-0.716,1.686-1.163,2.133s-1.578,0.838-3.393,1.17
			c-1.813,0.334-3.729,0.5-5.748,0.5c-3.171,0-4.756-1.084-4.756-3.25c0-0.607,0.169-1.755,0.507-3.445l2.907-14.643
			c0.169-0.845,0.254-1.451,0.254-1.818c0-0.338-0.119-0.651-0.358-0.939c1.322-0.498,2.242-0.746,2.759-0.746
			c0.616,0,0.925,0.354,0.925,1.059c0,0.18-0.164,1.055-0.492,2.625l-2.595,13.076c-0.378,1.879-0.566,3.187-0.566,3.922
			c0,1.242,1.377,1.863,4.13,1.863C331.931,80.551,334.461,80.049,337.065,79.045z"/>
		<path fill="#D8A98D" d="M357.509,70.094c-2.247,3.938-4.518,7.019-6.814,9.241c-2.296,2.223-4.359,3.333-6.188,3.333
			c-1.114,0-2.011-0.362-2.691-1.088c-0.682-0.727-1.021-1.68-1.021-2.863c0-0.447,0.099-1.158,0.298-2.133l0.328-1.641
			c0.487-2.367,0.73-4.027,0.73-4.982c0-0.566-0.169-1.028-0.507-1.387c1.292-0.297,2.103-0.446,2.431-0.446
			c0.735,0,1.104,0.517,1.104,1.549c0,0.765-0.145,1.862-0.433,3.292l-0.582,2.904c-0.288,1.4-0.432,2.31-0.432,2.727
			c0,1.232,0.521,1.848,1.565,1.848c1.242,0,2.897-1.045,4.965-3.136c2.068-2.091,4.071-4.739,6.01-7.947L357.509,70.094z
			 M344.238,62.586l0.209,0.016c0.665-0.03,1.622-0.366,2.87-1.008c1.247-0.642,2.224-1.296,2.93-1.963
			c-0.438,1.372-1.213,2.521-2.326,3.445c-1.689,1.411-2.833,2.117-3.43,2.117c-0.397,0-0.596-0.244-0.596-0.73
			C343.896,63.768,344.01,63.143,344.238,62.586z"/>
		<path fill="#D8A98D" d="M362.235,77.047c0.338,0.756,0.507,1.477,0.507,2.162c0,1.521-0.636,2.846-1.908,3.975
			c-1.272,1.127-2.764,1.691-4.474,1.691c-1.004,0-1.858-0.258-2.564-0.775c-0.706-0.517-1.059-1.138-1.059-1.863
			c0-0.775,0.484-1.561,1.454-2.355c0.969-0.796,2.592-1.74,4.868-2.834l-1.193-1.924c-1.451-2.335-2.177-4.16-2.177-5.472
			c0-1.889,1.099-3.409,3.296-4.562c1.352,0.517,2.027,1.168,2.027,1.953c0,1.113-0.859,2.183-2.579,3.206l1.699,3.131l1.327,2.416
			c1.898-1.133,3.33-2.105,4.295-2.915c0.964-0.811,2.182-2.06,3.652-3.751l1.193,0.731
			C368.463,72.723,365.675,75.12,362.235,77.047z M359.7,78.389c-2.922,1.571-4.384,2.789-4.384,3.654
			c0,0.814,0.592,1.223,1.774,1.223c0.875,0,1.586-0.297,2.133-0.888s0.82-1.354,0.82-2.289
			C360.044,79.534,359.93,78.966,359.7,78.389z"/>
		<path fill="#D8A98D" d="M377.772,76.391c0.269,0.488,0.402,0.915,0.402,1.283c0,0.975-0.822,2.05-2.468,3.229
			c-1.646,1.178-3.144,1.766-4.495,1.766c-1.193,0-2.165-0.531-2.915-1.595c-0.751-1.063-1.126-2.436-1.126-4.115
			c0-1.869,0.492-4.528,1.476-7.978l0.687-2.505h-2.521c-1.054,0-1.894,0.149-2.52,0.447c0.576-1.048,1.054-1.704,1.432-1.971
			s1.019-0.4,1.923-0.4h2.252l0.298-1.032c0.458-1.535,1.004-2.59,1.641-3.162c0.636-0.574,1.591-0.86,2.863-0.86
			c0.148,0,0.388,0.011,0.716,0.03c-0.775,0.996-1.581,2.672-2.416,5.024h7.873c1.382,0,2.436-0.179,3.161-0.538
			c-0.249,1.019-0.579,1.684-0.991,1.994c-0.413,0.312-1.181,0.468-2.305,0.468h-8.38c-0.099,0.327-0.174,0.571-0.224,0.73
			c-1.202,4.096-1.804,7.187-1.804,9.274c0,2.307,0.83,3.459,2.49,3.459c0.854,0,1.786-0.362,2.796-1.088
			C376.627,78.126,377.345,77.306,377.772,76.391z"/>
	</g>
</g>
<g>
	<path fill="#0E8369" d="M2.223,28h7.413c0.522,4.489,3.08,6.264,8.404,6.264c3.863,0,7.256-1.357,7.256-4.802
		c0-3.654-3.549-4.385-9.239-5.69C9.374,22.258,3.267,20.483,3.267,12.705c0-7.36,6.003-11.171,14.303-11.171
		c8.404,0,13.833,4.124,14.407,11.641h-7.256c-0.417-3.758-3.341-5.638-7.204-5.638c-4.071,0-6.734,1.723-6.734,4.385
		c0,3.027,2.61,3.915,8.144,5.115c7.673,1.67,13.938,3.498,13.938,11.537c0,7.569-6.107,11.797-14.512,11.797
		C8.226,40.372,2.483,35.882,2.223,28z"/>
	<path fill="#0E8369" d="M33.908,2.213h30.015v6.369H52.701v30.955h-7.569V8.582H33.908V2.213z"/>
	<path fill="#0E8369" d="M73.319,2.213h7.83l13.155,37.323h-7.882l-2.506-7.935H70.448l-2.454,7.935h-7.673L73.319,2.213z
		 M72.223,25.808h9.866l-3.341-10.753c-0.626-1.983-1.514-5.742-1.514-5.742H77.13c0,0-0.94,3.759-1.566,5.742L72.223,25.808z"/>
	<path fill="#0E8369" d="M102.499,25.129L90.076,2.213h8.248l5.638,11.066c1.148,2.245,2.453,5.325,2.453,5.325h0.104
		c0,0,1.41-3.08,2.506-5.325l5.533-11.066h7.934l-12.423,22.916v14.407h-7.569V25.129z"/>
	<path fill="#0E8369" d="M132.723,20.953c0-11.171,6.995-19.471,18.009-19.471c11.014,0,17.957,8.3,17.957,19.471
		s-6.943,19.419-17.957,19.419C139.718,40.372,132.723,32.124,132.723,20.953z M160.964,20.953c0-7.464-3.341-13.259-10.18-13.259
		c-6.838,0-10.335,5.794-10.335,13.259c0,7.413,3.498,13.207,10.335,13.207C157.623,34.16,160.964,28.365,160.964,20.953z"/>
	<path fill="#0E8369" d="M172.813,2.213h7.674l12.423,20.828c1.201,2.036,2.61,5.22,2.61,5.22h0.104c0,0-0.209-3.863-0.209-6.473
		V2.213h7.465v37.323h-7.309l-12.736-20.619c-1.2-1.983-2.662-5.168-2.662-5.168h-0.104c0,0,0.209,3.915,0.209,6.525v19.262h-7.465
		V2.213z"/>
	<path fill="#0E8369" d="M215.46,2.213h30.016v6.369h-11.224v30.955h-7.568V8.582H215.46V2.213z"/>
	<path fill="#0E8369" d="M249.285,2.213h17.122c7.203,0,12.006,4.176,12.006,10.388c0,4.385-2.036,7.726-6.839,9.031v0.157
		c3.445,0.992,5.221,2.976,5.69,7.517c0.521,5.272,0.313,9.292,1.618,9.866v0.365h-7.256c-0.939-0.417-1.044-4.594-1.357-8.613
		c-0.313-4.071-2.61-6.368-7.308-6.368h-6.107v14.981h-7.569V2.213z M256.854,18.708h8.038c4.124,0,6.16-2.14,6.16-5.115
		c0-3.028-1.932-5.272-5.951-5.272h-8.247V18.708z"/>
	<path fill="#0E8369" d="M293.811,2.213h7.83l13.154,37.323h-7.882l-2.506-7.935h-13.468l-2.453,7.935h-7.674L293.811,2.213z
		 M292.715,25.808h9.865l-3.341-10.753c-0.626-1.983-1.514-5.742-1.514-5.742h-0.104c0,0-0.939,3.759-1.565,5.742L292.715,25.808z"
		/>
	<path fill="#0E8369" d="M314.222,21.005c0-11.066,6.891-19.523,17.904-19.523c9.188,0,14.616,5.481,15.399,12.581h-7.517
		c-0.679-3.758-3.498-6.212-7.883-6.212c-6.891,0-10.179,5.742-10.179,13.154c0,7.622,3.967,13.103,10.231,13.103
		c4.437,0,7.568-2.662,8.039-6.577h7.412c-0.209,3.289-1.618,6.473-4.124,8.822c-2.558,2.401-6.159,3.967-11.327,3.967
		C321.687,40.319,314.222,32.228,314.222,21.005z"/>
	<path fill="#0E8369" d="M351.544,2.213h7.569V17.09l14.354-14.877h9.396l-14.616,14.929l15.556,22.394h-8.874l-12.006-17.435
		l-3.811,3.863v13.572h-7.569V2.213z"/>
</g>
<g>
	<path fill="#76B793" d="M0,26.518h7.413c0.522,4.489,3.08,6.264,8.404,6.264c3.863,0,7.256-1.357,7.256-4.802
		c0-3.654-3.549-4.385-9.239-5.69C7.151,20.776,1.044,19.001,1.044,11.223c0-7.36,6.003-11.171,14.303-11.171
		c8.404,0,13.833,4.124,14.407,11.641h-7.256c-0.417-3.758-3.341-5.638-7.204-5.638c-4.071,0-6.734,1.723-6.734,4.385
		c0,3.027,2.61,3.915,8.144,5.115c7.673,1.67,13.938,3.498,13.938,11.537c0,7.569-6.107,11.797-14.512,11.797
		C6.003,38.889,0.261,34.4,0,26.518z"/>
	<path fill="#76B793" d="M31.686,0.731h30.015V7.1H50.478v30.955h-7.569V7.1H31.686V0.731z"/>
	<path fill="#76B793" d="M71.096,0.731h7.83l13.155,37.323h-7.882l-2.506-7.935H68.226l-2.454,7.935h-7.673L71.096,0.731z
		 M70,24.326h9.866l-3.341-10.753c-0.626-1.983-1.514-5.742-1.514-5.742h-0.104c0,0-0.94,3.759-1.566,5.742L70,24.326z"/>
	<path fill="#76B793" d="M100.276,23.647L87.853,0.731h8.248l5.638,11.066c1.148,2.245,2.453,5.325,2.453,5.325h0.104
		c0,0,1.41-3.08,2.506-5.325l5.533-11.066h7.934l-12.423,22.916v14.407h-7.569V23.647z"/>
	<path fill="#76B793" d="M130.5,19.471C130.5,8.3,137.495,0,148.51,0c11.014,0,17.957,8.3,17.957,19.471
		s-6.943,19.418-17.957,19.418C137.495,38.889,130.5,30.642,130.5,19.471z M158.741,19.471c0-7.464-3.341-13.259-10.18-13.259
		c-6.838,0-10.335,5.794-10.335,13.259c0,7.413,3.498,13.207,10.335,13.207C155.4,32.678,158.741,26.883,158.741,19.471z"/>
	<path fill="#76B793" d="M170.591,0.731h7.674l12.423,20.828c1.201,2.036,2.61,5.22,2.61,5.22h0.104c0,0-0.209-3.863-0.209-6.473
		V0.731h7.465v37.323h-7.309l-12.736-20.619c-1.2-1.983-2.662-5.168-2.662-5.168h-0.104c0,0,0.209,3.915,0.209,6.525v19.262h-7.465
		V0.731z"/>
	<path fill="#76B793" d="M213.237,0.731h30.016V7.1h-11.224v30.955h-7.568V7.1h-11.224V0.731z"/>
	<path fill="#76B793" d="M247.062,0.731h17.122c7.203,0,12.006,4.176,12.006,10.388c0,4.385-2.036,7.726-6.839,9.031v0.157
		c3.445,0.992,5.221,2.976,5.69,7.517c0.521,5.272,0.313,9.292,1.618,9.866v0.365h-7.256c-0.939-0.417-1.044-4.594-1.357-8.613
		c-0.313-4.071-2.61-6.368-7.308-6.368h-6.107v14.981h-7.569V0.731z M254.632,17.226h8.038c4.124,0,6.16-2.14,6.16-5.115
		c0-3.028-1.932-5.272-5.951-5.272h-8.247V17.226z"/>
	<path fill="#76B793" d="M291.588,0.731h7.83l13.154,37.323h-7.882l-2.506-7.935h-13.468l-2.453,7.935h-7.674L291.588,0.731z
		 M290.492,24.326h9.865l-3.341-10.753c-0.626-1.983-1.514-5.742-1.514-5.742h-0.104c0,0-0.939,3.759-1.565,5.742L290.492,24.326z"
		/>
	<path fill="#76B793" d="M311.999,19.523C311.999,8.457,318.89,0,329.903,0c9.188,0,14.616,5.481,15.399,12.581h-7.517
		c-0.679-3.759-3.498-6.212-7.883-6.212c-6.891,0-10.179,5.742-10.179,13.154c0,7.622,3.967,13.103,10.231,13.103
		c4.437,0,7.568-2.662,8.039-6.577h7.412c-0.209,3.289-1.618,6.473-4.124,8.822c-2.558,2.401-6.159,3.967-11.327,3.967
		C319.464,38.837,311.999,30.746,311.999,19.523z"/>
	<path fill="#76B793" d="M349.321,0.731h7.569v14.877l14.354-14.877h9.396L366.025,15.66l15.556,22.394h-8.874l-12.006-17.435
		l-3.811,3.863v13.572h-7.569V0.731z"/>
</g>
<rect x="1.467" y="49.534" fill-rule="evenodd" clip-rule="evenodd" fill="#76B793" width="381.996" height="2.225"/>
</svg>
