<?xml version="1.0" encoding="utf-8"?>
<!-- Generator: Adobe Illustrator 16.0.0, SVG Export Plug-In . SVG Version: 6.00 Build 0)  -->
<!DOCTYPE svg PUBLIC "-//W3C//DTD SVG 1.1//EN" "http://www.w3.org/Graphics/SVG/1.1/DTD/svg11.dtd">
<svg version="1.1" id="Layer_1" xmlns="http://www.w3.org/2000/svg" xmlns:xlink="http://www.w3.org/1999/xlink" x="0px" y="0px"
	 width="298.662px" height="255.357px" viewBox="0 0 298.662 255.357" enable-background="new 0 0 298.662 255.357"
	 xml:space="preserve">
<path fill="#76B793" d="M149.528,102.925L42.504,155.217v39.016H256.55v-39.016L149.528,102.925z M210.13,150.235
	c0.746,0.797,1.476,1.576,2.235,2.387c-0.379,1.058-0.771,2.145-1.175,3.271c-0.312-0.095-0.534-0.161-0.815-0.245
	c1.663-2.252-0.009-3.177-1.851-4.056C209.347,151.135,210.222,151.099,210.13,150.235z M206.821,143.801
	c0.768-0.115,1.597-0.82,2.763-0.133c-0.985,0.631-1.88,1.2-2.991,1.91C206.679,144.92,206.741,144.425,206.821,143.801z
	 M119.835,143.588c0.046,0.331-0.345,0.723-0.619,1.234c-0.355-0.763-0.557-1.194-0.757-1.625
	C119.112,142.963,119.763,143.061,119.835,143.588z M120.837,169.832c-3.647-0.087-7.293-0.232-10.94-0.358
	c-0.128-0.004-0.256-0.043-0.562-0.098c1.654-0.847,3.213-1.244,4.914-0.926c0.263,0.049,0.528,0.129,0.791,0.127
	c3.302-0.02,6.604-0.056,9.904-0.072c0.64-0.004,1.279,0.068,1.919,0.092c0.528,0.02,1.091,0.141,1.575,0
	c0.956-0.279,1.785-0.051,2.688,0.357c-0.721,0.941-1.462,1.5-2.7,1.152c-0.893-0.25-1.856-0.316-2.792-0.334
	C124.037,169.743,122.436,169.87,120.837,169.832z M162.33,168.922c-4.36,0.607-8.767,0.981-13.076,1.837
	c-6.559,1.301-13.15,1.083-19.753,0.981c-0.709-0.012-1.426-0.242-2.116-0.451c-0.288-0.088-0.513-0.385-0.766-0.588
	c0.033-0.068,0.068-0.136,0.102-0.203c0.33,0.039,0.667,0.055,0.99,0.126c0.97,0.214,1.931,0.464,2.901,0.673
	c1.009,0.215,1.988,0.115,3.018-0.057c1.413-0.236,2.903-0.34,4.315-0.154c2.126,0.277,4.187-0.06,6.254-0.307
	c2.338-0.279,4.653-0.75,6.978-1.143c1.653-0.279,3.303-0.588,4.961-0.837c0.441-0.065,0.91,0.017,1.362,0.072
	c1.148,0.142,2.239,0.042,3.265-0.567c0.516-0.307,1.064-0.432,1.674-0.11c0.301,0.158,0.703,0.124,1.059,0.177
	c0.017,0.068,0.033,0.139,0.05,0.207C163.144,168.696,162.744,168.866,162.33,168.922z M225.032,158.801
	c-1.166,1.233-2.449,2.023-4.221,1.273c-0.198-0.086-0.48-0.045-0.705,0.012c-5.006,1.265-10.068,2.172-15.188,2.872
	c-3.502,0.479-6.928,1.491-10.404,2.177c-3.528,0.697-7.078,1.284-10.619,1.92c-0.034-0.103-0.069-0.203-0.104-0.306
	c0.792-0.298,1.574-0.625,2.38-0.882c0.41-0.131,0.807-0.182,0.61-0.834c-0.229,0.068-0.464,0.139-0.673,0.201
	c-0.844-1.324-2.197-1.425-3.714-1.731c-0.033,0.942-0.133,1.778-0.073,2.602c0.072,1.017-0.17,1.356-1.2,1.46
	c-3.716,0.373-7.427,0.781-11.146,1.135c-1.577,0.15-3.164,0.221-4.75,0.27c-0.283,0.01-0.576-0.262-0.971-0.457
	c0.681-0.562,1.239-0.844,2.008-0.66c0.421,0.1,0.895,0.039,1.337-0.016c1.249-0.158,2.494-0.35,3.794-0.691
	c-0.426-0.158-0.856-0.305-1.279-0.475c-0.426-0.174-0.844-0.369-1.136-0.498c-0.493,0.109-1.003,0.389-1.323,0.246
	c-0.34-0.152-0.499-0.707-0.756-1.117c-1.545,0.296-1.727,0.4-2.085,1.226c-1.72-0.026-3.552,0.3-4.649-1.636
	c-0.056,0.047-0.111,0.094-0.168,0.141c0.042,0.756,0.083,1.51,0.13,2.375c-1.548,0.215-2.949,1.504-4.711,0.469
	c0-0.66,0-1.369,0-2.078c-0.058-0.014-0.114-0.027-0.173-0.041c-0.15,0.232-0.303,0.465-0.514,0.787
	c-0.994-0.709-1.867-0.52-2.599,0.638c-0.605-0.391-1.176-0.771-1.758-1.128c-0.219-0.135-0.458-0.288-0.703-0.322
	c-0.745-0.1-1.496-0.162-2.248-0.205c-0.221-0.014-0.553,0.007-0.655,0.145c-0.438,0.59-1.03,0.592-1.657,0.564
	c-0.35-0.016-0.702-0.023-1.048,0.01c-1.323,0.123-2.524-0.002-3.494-1.111c-0.326-0.373-0.964-0.475-1.578-0.754
	c-0.022-0.09-0.083-0.344-0.158-0.652c-0.718,0.34-0.506,0.885-0.255,1.275c0.321,0.498,0.491,0.999-0.057,1.293
	c-0.382,0.205-1.021,0.247-1.408,0.066c-1.033-0.481-2.002-1.105-2.97-1.715c-0.18-0.113-0.236-0.421-0.377-0.692
	c-0.652,0.005-1.309-0.204-1.845,0.702c-0.291,0.492-1.242,0.643-1.926,0.837c-0.648,0.185-1.26,0.327-1.923-0.308
	c-0.286-0.273-1.378-0.092-1.812,0.251c-1.052,0.831-2.178,0.661-3.309,0.562c-0.797-0.07-1.574-0.348-2.37-0.457
	c-0.75-0.104-1.514-0.111-2.272-0.154c-0.238-0.014-0.483,0.031-0.717-0.003c-1.022-0.148-2.04-0.331-3.063-0.47
	c-0.954-0.129-1.911-0.271-2.87-0.309c-1.004-0.039-2.012,0.041-3.019,0.068c-0.005,0.084-0.01,0.17-0.014,0.254
	c-0.243-0.205-0.486-0.408-0.71-0.598c-1.156,0.342-2.286,0.674-3.204,0.945c-0.249-0.556-0.41-1.188-0.794-1.619
	c-0.124-0.139-0.839,0.251-1.346,0.42c-0.126-0.051-0.419-0.267-0.704-0.258c-0.594,0.019-0.793,0.48-0.406,0.828
	c0.117,0.104,0.283,0.15,0.418,0.238c0.104,0.068,0.195,0.158,0.291,0.238c-0.016,0.092-0.032,0.183-0.048,0.273
	c-0.832-0.098-1.663-0.197-2.494-0.296c-0.038,0.071-0.076,0.142-0.114,0.212c0.775,0.424,1.505,1.004,2.334,1.234
	c1.358,0.379,2.792,0.475,4.169,0.797c0.869,0.204,1.692,0.604,2.536,0.918c-0.011,0.084-0.021,0.168-0.031,0.252
	c-0.266,0.041-0.545,0.154-0.796,0.109c-1.713-0.299-3.459-0.5-5.119-0.993c-1.523-0.452-2.935-1.272-4.425-1.854
	c-1.43-0.559-2.848-1.249-4.478-0.801c-1.72,0.473-3.472,0.684-5.265,0.576c-1.084-0.063-2.176-0.012-3.255-0.012
	c0.088-0.684,0.442-1.039,1.313-0.971c3.573,0.279,6.968-0.81,10.418-1.455c0.715-0.135,1.025-0.707,0.672-1.334
	c-0.779-1.381-1.618-2.746-3.487-2.814c-0.318-0.012-0.644-0.074-0.948-0.17c-0.792-0.25-1.5-0.29-2.107,0.439
	c-0.132,0.158-0.535,0.184-0.784,0.133c-0.545-0.115-1.071-0.318-1.765-0.535c0.026,0.336-0.046,0.656,0.075,0.771
	c0.869,0.826,0.806,2.004,1.148,3.018c0.096,0.285-0.189,0.754-0.406,1.062c-0.081,0.116-0.576,0.121-0.688-0.002
	c-0.243-0.266-0.344-0.656-0.535-0.979c-0.284-0.48-0.596-0.944-1.027-1.399c-0.08,1.026-0.651,1.312-1.546,1.225
	c0.054,0.245,0.088,0.399,0.162,0.735c-1.119-0.165-2.149-0.301-3.173-0.475c-0.284-0.049-0.601-0.154-0.808-0.339
	c-0.233-0.208-0.359-0.536-0.532-0.812c0.327-0.2,0.653-0.4,1.072-0.659c-0.437-0.662-0.946-1.435-1.455-2.206
	c0-0.322,0-0.646,0-0.969c0.091-0.246,0.195-0.488,0.271-0.738c0.194-0.632,0.553-1.057,1.221-1.27
	c0.522-0.168,0.993-0.495,1.528-0.771c-0.174-0.326-0.304-0.557-0.422-0.793c-0.211-0.42-0.491-0.777-0.022-1.285
	c0.252-0.271,0.244-0.806,0.302-1.229c0.07-0.494,0.304-0.691,0.81-0.658c0.584,0.037,1.171,0.008,1.887,0.008
	c-0.443-0.98-0.113-1.745,0.715-2.255c0.284-0.175,0.713-0.128,1.078-0.155c0.355-0.025,0.815,0.119,1.05-0.053
	c0.544-0.402,1.106-0.879,1.432-1.455c0.57-1.004,1.546-1.063,2.459-1.285c0.156-0.037,0.51,0.219,0.569,0.404
	c0.146,0.453,0.418,0.678,0.859,0.684c0.533,0.01,0.732,0.293,0.851,0.775c0.061,0.246,0.316,0.445,0.483,0.667
	c0.069-0.034,0.138-0.067,0.207-0.102c0.039-0.33,0.079-0.661,0.132-1.112c0.425,0.033,0.837,0.064,1.25,0.104
	c0.105,0.01,0.209,0.048,0.312,0.082c1.572,0.522,3.436,0.67,3.567,3.072c0.671-0.914,1.288-1.566,1.173-2.593
	c-0.053-0.476-0.013-1.028,0.608-1.282c0.16-0.066,0.22-0.373,0.356-0.627c0.228,0.174,0.482,0.395,0.764,0.573
	c0.511,0.322,0.754,0.716,0.553,1.345c-0.052,0.16,0.108,0.388,0.172,0.586c0.183-0.104,0.439-0.162,0.536-0.319
	c0.293-0.479,0.542-0.988,0.774-1.502c0.216-0.476,0.094-0.815-0.443-0.997c-1.029-0.35-1.025-0.363-0.693-1.412
	c0.072-0.229,0.15-0.455,0.222-0.674c1.731-0.031,3.171,1.361,3.254,3.049c0.04,0.812,0.208,1.619,0.317,2.43
	c0.073,0,0.146,0,0.219,0c0.051-0.13,0.151-0.264,0.142-0.39c-0.108-1.4,0.661-2.558,1.055-3.815
	c0.373-1.192,1.066-2.127,2.388-2.358c0.281-0.05,0.596,0.134,0.898,0.149c0.422,0.021,0.868,0.068,1.267-0.037
	c1.068-0.279,2.015-0.057,2.764,0.432c-0.09,0.545-0.138,1.008-0.254,1.453c-0.058,0.224-0.24,0.416-0.486,0.817
	c0.643,0.554,1.324,1.14,2.038,1.755c0.403-0.807,0.707-1.412,1.008-2.018c0.101,0.025,0.202,0.051,0.303,0.076
	c0.137,0.508,0.231,1.031,0.429,1.512c0.111,0.27,0.395,0.467,0.601,0.697c0.181-0.236,0.477-0.453,0.522-0.713
	c0.16-0.92,0.396-1.764-0.241-2.748c-0.548-0.846-0.119-1.919,0.831-2.693c0.785,0.945,2.22,1.166,2.827,2.41
	c-0.502,0.271-0.913,0.494-1.336,0.723c0.427,0.936,0.824,1.806,1.241,2.718c0.194-0.118,0.418-0.253,0.693-0.419
	c-0.136-0.216-0.255-0.404-0.374-0.59c0.009-0.031,0.008-0.062,0.024-0.082c0.068-0.088,1.889,0.06,1.92,0.169
	c0.173,0.599,0.564,0.716,1.157,0.476c0,0.424,0,0.789,0,1.149c0.716,0.099,1.183-0.38,1.215-1.688
	c0.013-0.552-0.474-1.319-0.96-1.62c-0.449-0.277-1.203-0.059-1.869-0.059c0.207-0.648,0.399-1.318,0.644-1.967
	c0.062-0.164,0.277-0.318,0.453-0.367c0.078-0.021,0.249,0.219,0.349,0.359c0.662,0.939,1.306,1.893,1.986,2.82
	c0.104,0.141,0.364,0.226,0.557,0.234c2.419,0.106,4.107,1.555,5.74,3.105c0.058,0.057,0.162,0.115,0.162,0.173
	c-0.001,1.517,1.927,1.568,2.049,2.983c0.113-0.019,0.226-0.037,0.339-0.057c0.035-0.254,0.152-0.531,0.084-0.752
	c-0.1-0.326-0.335-0.608-0.508-0.912c-0.156-0.273-0.304-0.549-0.566-1.026c1.388-0.175,2.62-0.329,3.852-0.483
	c0.029,0.059,0.059,0.119,0.089,0.178c-0.265,0.158-0.511,0.391-0.796,0.461c-1.112,0.273-1.265,0.537-0.825,1.48
	c0.646-0.408,1.386-0.727,1.927-1.25c1.176-1.135,1.553-2.533,0.888-4.244c0.324,0.123,0.548,0.258,0.786,0.285
	c0.318,0.038,0.713,0.107,0.955-0.039c0.582-0.352,0.919-0.097,1.363,0.35c-0.43,0.051-0.761,0.09-1.09,0.129
	c-0.028,0.066-0.056,0.133-0.084,0.2c0.387,0.189,0.773,0.378,1.23,0.602c-0.214,0.349-0.376,0.612-0.556,0.903
	c0.381,0.299,0.705,0.58,0.882-0.16c0.455,0.18,0.873,0.344,1.377,0.544c0.328-1.005-0.586-1.489-0.708-2.366
	c1.172,0.829,2.344,1.658,3.683,2.605c-0.143-0.358-0.214-0.535-0.283-0.713c0.029-0.074,0.059-0.148,0.09-0.223
	c0.889,0.303,1.775,0.608,2.665,0.908c0.554,0.188,1.114,0.351,1.661,0.552c0.467,0.171,0.943,0.338,1.371,0.583
	c1.242,0.709,2.567,1.11,3.99,1.117c1.629,0.008,3.135,0.331,4.669,0.966c1.479,0.612,3.16,0.737,4.756,1.061
	c0.177,0.036,0.408,0.038,0.556-0.047c1.182-0.674,2.275-0.044,3.394,0.204c0.786,0.174,1.56,0.416,2.353,0.532
	c0.976,0.144,1.895,0.005,2.762-0.593c0.584-0.404,1.317-0.59,1.973-0.899c1.065-0.505,2.118-1.038,3.184-1.544
	c0.209-0.098,0.463-0.206,0.677-0.174c2.01,0.293,3.38-0.928,4.833-1.98c0.306-0.223,0.667-0.407,1.032-0.502
	c0.542-0.141,1.11-0.185,1.667-0.271c1.127-0.174,2.057-0.692,2.861-1.505c0.793-0.802,1.803-1.063,2.928-1.093
	c1.04-0.028,2.073-0.24,3.113-0.33c0.285-0.025,0.584,0.086,0.873,0.156c0.56,0.135,1.118,0.283,1.912,0.488
	c-0.363,0.326-0.649,0.568-0.916,0.829c-0.176,0.173-0.369,0.352-0.479,0.565c-0.561,1.1-1.617,1.449-2.993,0.783
	c0.847-0.201,1.505-0.358,2.333-0.556c-0.309-0.195-0.514-0.421-0.748-0.456c-0.912-0.137-1.834-0.219-2.754-0.305
	c-0.196-0.018-0.441-0.033-0.59,0.063c-1.322,0.858-2.85,1.546-3.865,2.686c-0.73,0.82-1.479,0.772-2.281,1.009
	c-0.344,0.102-0.638,0.369-1.067,0.629c0.388,0.357,0.732,0.642,1.032,0.965c0.17,0.183,0.377,0.434,0.371,0.65
	c-0.01,0.357-0.178,0.713-0.277,1.07c-0.571-0.17-1.164-0.291-1.705-0.528c-0.264-0.115-0.584-0.675-0.619-0.651
	c-0.474,0.32-1.125,0.628-1.289,1.095c-0.277,0.789-0.237,1.688-0.333,2.567c-0.776-0.488-1.03-1.328-0.884-2.367
	c-1.029,0.666-1.346,2.168-0.723,3.242c0.45,0.777,0.45,0.777,0.041,1.488c-0.434-0.859-0.862-1.677-1.259-2.508
	c-0.221-0.467-0.546-0.559-1.036-0.504c-1.271,0.139-2.436,0.365-3.314,1.49c-0.476,0.607-1.243,1.012-1.932,1.422
	c-0.618,0.369-1.284,0.42-2.002,0.096c-0.346-0.156-0.996-0.199-1.193,0.007c-0.316,0.331-0.395,0.907-0.504,1.394
	c-0.014,0.059,0.387,0.248,0.613,0.312c0.318,0.091,0.671,0.076,0.979,0.187c0.66,0.235,1.211,0.75,2.037,0.476
	c0.291-0.098,0.756,0.172,1.084,0.369c0.434,0.262,0.848,0.581,1.203,0.941c0.863,0.869,1.891,0.857,2.986,0.682
	c0.688-0.111,1.409-0.064,2.068-0.255c0.396-0.114,0.701-0.547,1.19-0.955c-0.513-0.194-0.771-0.291-1.032-0.39
	c0.859-1.4,1.339-1.513,2.123-0.516c0.992-0.119,1.694-0.607,2.223-1.484c0.494-0.822,1.164-1.535,1.73-2.314
	c0.164-0.227,0.24-0.516,0.361-0.79c0.35,0.964,1.409,1.478,2.387,1.174c0.855-0.265,0.906-0.513,0.462-2.442
	c0.335-0.148,0.688-0.306,1.128-0.501c0.206,0.666,0.447,1.268,0.556,1.892c0.041,0.235-0.185,0.717-0.356,0.75
	c-0.436,0.086-0.836,0.252-0.627,0.662c0.148,0.287,0.748,0.586,1.051,0.507c0.742-0.196,1.622,0.081,2.236-0.667
	c0.236-0.288,0.866-0.003,1.055-0.635c0.186-0.625,0.555-1.191-0.125-1.827c1.666-0.06,2.443,1.179,3.611,1.96
	c-0.344,0.111-0.602,0.197-0.939,0.309c0.177,0.703,0.355,1.412,0.533,2.123c0.058,0.015,0.116,0.03,0.176,0.045
	c0.268-0.597,0.533-1.195,0.805-1.791c0.256-0.558,0.449-1.158,0.794-1.654c0.315-0.455,0.769-0.586,1.141,0.045
	c0.299,0.506,0.638,0.988,0.981,1.514c-0.274,0.227-0.514,0.425-0.871,0.721c0.55,0.82,1.021,1.699,1.663,2.43
	c0.716,0.816,1.351,0.793,2.263,0.166c0.288-0.197,0.575-0.395,0.902-0.62c0.184,0.155,0.357,0.303,0.541,0.458
	c-0.123,0.278-0.229,0.52-0.385,0.879c0.49-0.096,0.887-0.174,1.467-0.288c-0.424-0.258-0.686-0.415-0.977-0.593
	c0.219-0.506,0.482-0.934,1.115-0.749c1.065,0.31,1.893-0.249,2.678-0.776c0.535-0.359,0.906-0.355,1.435-0.037
	c1.031,0.617,1.237,0.535,1.405-0.624c0.128-0.884,0.862-0.726,1.357-0.995c0.633,0.472,0.438,1.587,1.373,1.725
	c0.031-0.607-0.082-1.275,0.155-1.779c0.118-0.252,0.875-0.203,1.409-0.303c0.146,0.967,0.829,1.309,1.603,1.525
	C225.519,158.04,225.448,158.362,225.032,158.801z M93.116,160.663c0.01-0.184,0.309-0.352,0.475-0.526
	c0.205,0.198,0.552,0.376,0.59,0.603c0.087,0.533,0.029,1.092,0.029,1.668c-0.278,0.207-0.616,0.457-1.037,0.771
	c-0.121-0.192-0.376-0.484-0.331-0.543C93.323,162.014,93.082,161.328,93.116,160.663z M199.644,152.28
	c-0.123,0.826-0.258,1.717-0.42,2.791c-0.217-0.182-0.492-0.309-0.598-0.521c-0.351-0.697-0.641-1.426-0.951-2.139
	c-1.317,0.574-1.216,0.668-2.287-0.48c-0.992,0.432-1.48,0.067-1.478-1.064c0.002-0.392-0.088-0.785-0.152-1.308
	c0.347,0.157,0.599,0.271,0.88,0.397c0.277-0.596,0.682-0.992,1.422-0.847c0.109,0.021,0.275-0.105,0.377-0.204
	c0.442-0.427,0.869-0.869,1.441-1.275c-0.082,1.783,1.657,2.424,2.288,3.949c-0.837-0.47-1.452-0.814-2.099-1.178
	c-0.144,0.526-0.249,0.908-0.385,1.402C198.306,151.956,198.933,152.108,199.644,152.28z"/>
<g>
	<path fill="#76B793" d="M27.146,204.924c3.201,17.486,11.804,26.23,15.003,43.717c-12.762,2.336-19.122,3.678-31.773,6.716
		c2.364-9.707,3.632-14.559,6.345-24.256c-6.531-7.666-9.875-11.462-16.72-18.96C13.597,208.876,13.43,207.434,27.146,204.924z"/>
	<path fill="#76B793" d="M288.288,255.357c-12.539-3.009-18.839-4.344-31.484-6.665c3.209-17.484,11.815-26.227,15.025-43.712
		c13.589,2.495,13.358,3.926,26.833,7.161c-6.847,7.498-10.189,11.293-16.719,18.957
		C284.653,240.796,285.923,245.65,288.288,255.357z"/>
	<path fill="#0E8369" d="M273.479,239.024c-6.566,2.746-9.811,4.167-16.206,7.09c0.729-3.963,1.093-5.947,1.821-9.911
		C264.858,237.26,267.735,237.827,273.479,239.024z"/>
	<path fill="#0E8369" d="M41.712,246.262c-6.522-2.986-9.827-4.436-16.527-7.238c5.859-1.223,8.796-1.799,14.677-2.875
		C40.603,240.193,40.972,242.217,41.712,246.262z"/>
</g>
<g>
	<path fill="#D8A98D" d="M135.992,202.816c-0.861,0.013-1.722,0.025-2.583,0.04c0.037,2.203,0.075,4.406,0.112,6.608
		c0.889-0.015,1.777-0.028,2.666-0.041c1.364-0.02,2.812-0.507,2.782-3.326C138.935,202.967,137.061,202.8,135.992,202.816z"/>
	<path fill="#D8A98D" d="M173.916,203.041c-0.861-0.022-1.722-0.044-2.583-0.063c-0.051,2.203-0.103,4.404-0.154,6.607
		c0.889,0.021,1.777,0.043,2.666,0.066c1.364,0.035,2.83-0.395,2.913-3.213C176.851,203.309,174.985,203.069,173.916,203.041z"/>
	<path fill="#D8A98D" d="M182.64,207.532c1.038,0.037,2.076,0.076,3.115,0.115c-0.463-1.371-0.928-2.744-1.395-4.115
		C183.784,204.865,183.211,206.198,182.64,207.532z"/>
	<path fill="#D8A98D" d="M92.457,204.436c-1.098,0.066-2.195,0.135-3.292,0.205c0.06,0.933,0.119,1.866,0.179,2.799
		c1.094-0.069,2.188-0.137,3.282-0.203c1.051-0.063,1.602-0.434,1.539-1.511C94.107,204.731,93.46,204.375,92.457,204.436z"/>
	<path fill="#D8A98D" d="M36.013,209.543c-1.063,0.129-2.126,0.26-3.189,0.391c0.121,0.973,0.242,1.945,0.363,2.918
		c1.013-0.125,2.026-0.25,3.04-0.372c1.073-0.13,1.617-0.507,1.481-1.646C37.567,209.657,36.747,209.456,36.013,209.543z"/>
	<path fill="#D8A98D" d="M45.948,208.397c-1.094,0.121-2.188,0.242-3.281,0.367c0.105,0.93,0.211,1.858,0.317,2.787
		c1.09-0.123,2.181-0.246,3.271-0.365c1.047-0.115,1.58-0.513,1.464-1.585C47.612,208.608,46.949,208.288,45.948,208.397z"/>
	<path fill="#D8A98D" d="M231.855,210.174c-1.226-0.107-2.452-0.213-3.679-0.316c-0.077,0.924-0.154,1.846-0.232,2.77
		c1.131,0.095,2.261,0.191,3.391,0.291c0.844,0.074,1.716-0.024,1.827-1.26C233.241,210.772,232.702,210.249,231.855,210.174z"/>
	<path fill="#D8A98D" d="M116.324,203.029c-2.139,0.075-3.304,1.58-3.221,3.696c0.083,2.115,1.351,3.523,3.471,3.448
		c2.12-0.074,3.287-1.565,3.222-3.683C119.73,204.374,118.463,202.954,116.324,203.029z"/>
	<path fill="#D8A98D" d="M262.97,209.577c-0.856-0.104-1.712-0.207-2.568-0.309c-0.26,2.188-0.519,4.376-0.777,6.564
		c0.885,0.104,1.769,0.21,2.652,0.317c1.357,0.163,2.859-0.125,3.208-2.923C265.871,210.122,264.033,209.704,262.97,209.577z"/>
	<path fill="#D8A98D" d="M16.121,195.577c3.631,17.402,5.447,26.105,9.078,43.51c83.38-15.801,164.886-15.811,248.268,0
		c3.629-17.404,5.444-26.105,9.075-43.508C193.187,178.522,105.479,178.528,16.121,195.577z M37.051,213.903
		c-1.226,0.146-2.452,0.297-3.678,0.449c0.151,1.213,0.302,2.428,0.453,3.641c-0.627,0.078-1.254,0.156-1.881,0.236
		c-0.402-3.186-0.805-6.37-1.207-9.555c1.858-0.235,3.717-0.465,5.577-0.688c2.22-0.267,3.11,1.085,3.29,2.625
		C39.774,212.071,39.078,213.659,37.051,213.903z M48.57,216.28c-0.167-0.254-0.308-0.727-0.383-1.425
		c-0.148-1.367-0.429-2.313-1.817-2.162c-1.072,0.118-2.144,0.237-3.215,0.36c0.143,1.26,0.286,2.52,0.43,3.779
		c-0.628,0.07-1.256,0.143-1.883,0.215c-0.369-3.188-0.738-6.377-1.107-9.566c1.911-0.221,3.822-0.436,5.734-0.646
		c2.311-0.252,3.177,0.784,3.335,2.272c0.132,1.247-0.429,2.094-1.245,2.466c0.001,0.009,0.002,0.019,0.003,0.027
		c1.1,0.126,1.445,1.093,1.589,2.448c0.048,0.456,0.175,1.527,0.595,2.012C49.927,216.133,49.248,216.206,48.57,216.28z
		 M51.93,215.921c-0.333-3.192-0.667-6.386-1.001-9.579c2.624-0.273,5.248-0.537,7.873-0.789c0.048,0.501,0.097,1.002,0.145,1.504
		c-1.987,0.19-3.973,0.388-5.959,0.592c0.083,0.805,0.165,1.609,0.248,2.414c1.901-0.194,3.802-0.383,5.704-0.566
		c0.048,0.502,0.096,1.002,0.145,1.504c-1.898,0.183-3.797,0.371-5.695,0.566c0.091,0.885,0.182,1.771,0.272,2.656
		c2.006-0.205,4.012-0.404,6.019-0.598c0.048,0.502,0.097,1.003,0.145,1.504C57.192,215.383,54.561,215.647,51.93,215.921z
		 M71.14,214.113c-0.196-2.646-0.393-5.292-0.588-7.937c-0.009,0-0.017,0.001-0.026,0.002c-0.895,2.736-1.781,5.475-2.657,8.215
		c-0.537,0.047-1.074,0.094-1.61,0.142c-1.334-2.544-2.677-5.087-4.03-7.626c-0.008,0.002-0.017,0.002-0.025,0.003
		c0.27,2.64,0.54,5.278,0.81,7.917c-0.591,0.055-1.182,0.111-1.773,0.166c-0.302-3.195-0.604-6.392-0.906-9.588
		c0.915-0.086,1.83-0.172,2.744-0.255c1.286,2.384,2.564,4.77,3.833,7.158c0.823-2.573,1.656-5.146,2.496-7.716
		c0.907-0.077,1.813-0.152,2.721-0.227c0.262,3.199,0.524,6.398,0.786,9.598C72.322,214.014,71.731,214.063,71.14,214.113z
		 M74.743,213.818c-0.256-3.2-0.512-6.4-0.767-9.601c0.636-0.051,1.271-0.101,1.907-0.15c0.25,3.201,0.499,6.401,0.748,9.602
		C76.001,213.717,75.373,213.768,74.743,213.818z M78.467,213.528c-0.243-3.201-0.486-6.402-0.729-9.604
		c2.628-0.199,5.258-0.389,7.888-0.565c0.034,0.503,0.068,1.005,0.102,1.507c-1.99,0.135-3.98,0.275-5.97,0.422
		c0.06,0.808,0.12,1.615,0.179,2.422c1.904-0.141,3.809-0.275,5.714-0.404c0.034,0.502,0.068,1.004,0.102,1.507
		c-1.902,0.129-3.804,0.264-5.705,0.403c0.065,0.889,0.131,1.776,0.196,2.664c2.01-0.148,4.02-0.29,6.03-0.426
		c0.034,0.502,0.068,1.006,0.102,1.508C83.739,213.139,81.103,213.328,78.467,213.528z M94.684,212.438
		c-0.154-0.261-0.271-0.74-0.312-1.441c-0.081-1.373-0.314-2.332-1.707-2.248c-1.075,0.064-2.15,0.131-3.226,0.199
		c0.081,1.266,0.162,2.531,0.243,3.797c-0.63,0.039-1.26,0.08-1.89,0.122c-0.211-3.203-0.422-6.407-0.633-9.61
		c1.917-0.126,3.835-0.246,5.753-0.361c2.317-0.137,3.131,0.94,3.215,2.435c0.07,1.253-0.531,2.069-1.363,2.401
		c0,0.01,0.001,0.019,0.001,0.027c1.091,0.18,1.387,1.164,1.464,2.523c0.026,0.459,0.1,1.535,0.495,2.039
		C96.045,212.36,95.365,212.399,94.684,212.438z M98.056,212.248c-0.176-3.206-0.352-6.411-0.527-9.616
		c2.631-0.145,5.263-0.277,7.895-0.4c0.023,0.503,0.047,1.006,0.07,1.51c-1.992,0.092-3.984,0.191-5.976,0.296
		c0.043,0.808,0.085,1.616,0.128,2.425c1.907-0.102,3.813-0.195,5.72-0.285c0.023,0.504,0.047,1.006,0.07,1.51
		c-1.904,0.088-3.807,0.184-5.71,0.283c0.047,0.89,0.094,1.779,0.141,2.668c2.012-0.106,4.023-0.206,6.035-0.299
		c0.023,0.502,0.047,1.006,0.07,1.508C103.333,211.969,100.694,212.102,98.056,212.248z M116.627,211.683
		c-3.805,0.135-5.389-2.171-5.501-4.88c-0.112-2.709,1.294-5.147,5.146-5.284c3.852-0.132,5.424,2.202,5.502,4.911
		C121.851,209.141,120.432,211.552,116.627,211.683z M123.245,211.206c-0.089-3.209-0.179-6.418-0.269-9.627
		c0.637-0.018,1.274-0.035,1.912-0.051c0.069,2.678,0.139,5.357,0.208,8.035c1.828-0.047,3.656-0.089,5.484-0.125
		c0.011,0.53,0.021,1.061,0.032,1.592C128.156,211.079,125.7,211.137,123.245,211.206z M136.964,210.923
		c-1.771,0.024-3.541,0.052-5.311,0.085c-0.061-3.209-0.122-6.419-0.182-9.629c1.636-0.031,3.271-0.057,4.907-0.08
		c3.571-0.047,4.468,2.109,4.492,4.859C140.888,208.237,140.028,210.885,136.964,210.923z M142.396,210.868
		c-0.024-3.211-0.048-6.42-0.072-9.631c0.637-0.005,1.275-0.009,1.912-0.012c0.017,3.21,0.035,6.42,0.052,9.631
		C143.657,210.858,143.026,210.863,142.396,210.868z M154.052,210.854c-2.642-0.014-5.283-0.016-7.924-0.007
		c-0.011-3.21-0.022-6.421-0.033-9.631c2.634-0.009,5.268-0.007,7.903,0.006c-0.002,0.503-0.005,1.007-0.008,1.511
		c-1.993-0.01-3.987-0.014-5.981-0.01c0.001,0.809,0.002,1.617,0.003,2.428c1.909-0.004,3.817,0,5.726,0.008
		c-0.003,0.504-0.005,1.008-0.008,1.512c-1.904-0.01-3.811-0.012-5.715-0.01c0.001,0.891,0.002,1.781,0.003,2.671
		c2.014-0.003,4.027,0.001,6.041,0.011C154.056,209.846,154.054,210.35,154.052,210.854z M159.342,211.165
		c-3.24-0.033-4.532-1.398-4.546-3.423c0.684,0.004,1.367,0.009,2.051,0.015c0.041,1.268,1.021,1.881,2.574,1.898
		c1.149,0.012,2.229-0.338,2.242-1.391c0.029-2.395-6.653-0.38-6.63-4.326c0.012-2.144,1.815-2.971,4.034-2.947
		c1.402,0.012,4.205,0.321,4.404,3.117c-0.687-0.01-1.373-0.02-2.059-0.028c-0.054-0.741-0.68-1.562-2.271-1.577
		c-1.273-0.014-2.117,0.398-2.124,1.302c-0.021,2.259,6.761,0.167,6.698,4.288C163.677,210.573,161.259,211.184,159.342,211.165z
		 M178.657,206.577c-0.066,2.078-1.031,4.688-4.095,4.604c-1.771-0.047-3.54-0.09-5.311-0.127c0.067-3.21,0.136-6.42,0.204-9.629
		c1.636,0.035,3.271,0.074,4.906,0.117C177.933,201.637,178.743,203.828,178.657,206.577z M187.116,211.602
		c-0.282-0.807-0.566-1.615-0.852-2.423c-1.416-0.056-2.832-0.108-4.248-0.157c-0.339,0.784-0.678,1.569-1.016,2.354
		c-0.681-0.022-1.361-0.045-2.043-0.066c1.438-3.166,2.891-6.33,4.355-9.489c0.756,0.027,1.512,0.056,2.268,0.085
		c1.229,3.259,2.441,6.521,3.642,9.785C188.521,211.661,187.819,211.631,187.116,211.602z M199.39,212.178
		c-0.711-0.037-1.42-0.074-2.131-0.111c-1.675-2.498-3.363-4.993-5.066-7.482c-0.009-0.001-0.018-0.002-0.025-0.002
		c-0.109,2.408-0.219,4.814-0.328,7.223c-0.605-0.027-1.211-0.055-1.815-0.08c0.14-3.208,0.278-6.415,0.418-9.623
		c0.729,0.032,1.46,0.064,2.19,0.098c1.694,2.49,3.375,4.985,5.041,7.484c0.008,0,0.017,0.001,0.025,0.002
		c0.124-2.407,0.248-4.814,0.372-7.221c0.61,0.031,1.222,0.063,1.833,0.096C199.732,205.767,199.561,208.973,199.39,212.178z
		 M205.923,211.307c1.967,0.119,2.713-1.264,2.93-2.265c0.683,0.044,1.365,0.087,2.049,0.132c-0.393,1.896-1.696,3.846-5.398,3.621
		c-3.246-0.193-4.667-2.646-4.52-5.354c0.146-2.705,1.779-4.999,5.359-4.785c3.135,0.189,4.648,2.051,4.715,4.136
		c-0.686-0.045-1.369-0.089-2.055-0.132c-0.098-1.467-1.175-2.4-2.776-2.497c-1.756-0.105-3.136,1.06-3.277,3.564
		C202.835,209.735,204.056,211.195,205.923,211.307z M220.597,205.411c-1.989-0.15-3.979-0.295-5.969-0.433
		c-0.057,0.808-0.112,1.614-0.168,2.423c1.904,0.131,3.81,0.27,5.714,0.412c-0.038,0.502-0.075,1.004-0.113,1.507
		c-1.901-0.144-3.804-0.28-5.705-0.413c-0.062,0.889-0.123,1.777-0.185,2.665c2.01,0.14,4.02,0.284,6.029,0.437
		c-0.038,0.502-0.076,1.005-0.114,1.507c-2.636-0.2-5.271-0.388-7.908-0.565c0.215-3.203,0.431-6.406,0.646-9.609
		c2.63,0.178,5.26,0.365,7.888,0.564C220.673,204.407,220.636,204.909,220.597,205.411z M235.121,211.931
		c-0.099,1.075-0.888,2.761-3.314,2.546c-1.958-0.174-3.917-0.34-5.876-0.501c0.262-3.2,0.524-6.399,0.787-9.599
		c2,0.164,4,0.334,6,0.512c2.072,0.184,2.499,1.402,2.387,2.625c-0.125,1.369-0.907,1.691-1.408,1.891
		C234.371,209.696,235.27,210.319,235.121,211.931z M243.507,215.584c-0.234-0.824-0.47-1.647-0.705-2.471
		c-1.412-0.141-2.823-0.279-4.235-0.414c-0.387,0.764-0.772,1.525-1.157,2.289c-0.679-0.064-1.357-0.127-2.037-0.19
		c1.628-3.073,3.27-6.144,4.924-9.208c0.754,0.072,1.508,0.146,2.262,0.221c1.03,3.328,2.046,6.656,3.048,9.988
		C244.906,215.727,244.206,215.655,243.507,215.584z M255.737,216.901c-0.707-0.08-1.415-0.16-2.122-0.24
		c-1.523-2.596-3.062-5.188-4.613-7.775c-0.009-0.002-0.017-0.002-0.025-0.003c-0.255,2.396-0.509,4.793-0.763,7.189
		c-0.604-0.063-1.206-0.128-1.81-0.19c0.333-3.193,0.665-6.386,0.998-9.578c0.728,0.075,1.455,0.152,2.183,0.229
		c1.543,2.589,3.072,5.181,4.587,7.775c0.009,0.001,0.017,0.002,0.025,0.003c0.27-2.396,0.538-4.79,0.808-7.185
		c0.608,0.068,1.217,0.137,1.826,0.207C256.467,210.522,256.102,213.711,255.737,216.901z M267.366,213.545
		c-0.262,2.062-1.473,4.568-4.519,4.195c-1.761-0.215-3.522-0.424-5.284-0.629c0.371-3.189,0.741-6.378,1.112-9.566
		c1.628,0.189,3.255,0.383,4.882,0.58C267.108,208.559,267.712,210.817,267.366,213.545z"/>
	<path fill="#D8A98D" d="M239.278,211.25c1.035,0.1,2.07,0.201,3.105,0.303c-0.379-1.396-0.761-2.795-1.145-4.191
		C240.583,208.657,239.93,209.954,239.278,211.25z"/>
	<path fill="#D8A98D" d="M231.722,206.318c-1.074-0.095-2.148-0.187-3.224-0.276c-0.067,0.797-0.134,1.595-0.201,2.393
		c1.182,0.1,2.363,0.201,3.545,0.305c0.531,0.047,1.239-0.025,1.336-1.115C233.249,206.833,232.825,206.415,231.722,206.318z"/>
</g>
<g>
	<g>
		<path fill="#0E8369" d="M70.883,2.213h7.569v14.616h14.668V2.213h7.569v37.323h-7.569V23.093H78.452v16.443h-7.569V2.213z"/>
		<path fill="#0E8369" d="M106.432,2.213h27.458v6.369H114v8.352h17.435v6.211H114V33.22h20.045v6.316h-27.614V2.213z"/>
		<path fill="#0E8369" d="M138.743,2.213h7.569V33.22h17.54v6.316h-25.108V2.213z"/>
		<path fill="#0E8369" d="M167.923,2.213h7.568V33.22h17.54v6.316h-25.108V2.213z"/>
		<path fill="#0E8369" d="M193.919,20.953c0-11.171,6.994-19.471,18.008-19.471c11.015,0,17.958,8.3,17.958,19.471
			s-6.943,19.419-17.958,19.419C200.913,40.372,193.919,32.124,193.919,20.953z M222.159,20.953c0-7.464-3.341-13.259-10.18-13.259
			c-6.838,0-10.336,5.794-10.336,13.259c0,7.413,3.498,13.207,10.336,13.207C218.818,34.16,222.159,28.365,222.159,20.953z"/>
	</g>
	<g>
		<path fill="#76B793" d="M68.661,0.731h7.569v14.616h14.668V0.731h7.569v37.323h-7.569V21.611H76.229v16.443h-7.569V0.731z"/>
		<path fill="#76B793" d="M104.209,0.731h27.458V7.1h-19.889v8.352h17.435v6.211h-17.435v10.075h20.045v6.316h-27.614V0.731z"/>
		<path fill="#76B793" d="M136.521,0.731h7.569v31.007h17.54v6.316h-25.108V0.731z"/>
		<path fill="#76B793" d="M165.7,0.731h7.568v31.007h17.54v6.316H165.7V0.731z"/>
		<path fill="#76B793" d="M191.696,19.471C191.696,8.3,198.69,0,209.704,0c11.015,0,17.958,8.3,17.958,19.471
			s-6.943,19.418-17.958,19.418C198.69,38.889,191.696,30.642,191.696,19.471z M219.937,19.471c0-7.464-3.341-13.259-10.18-13.259
			c-6.838,0-10.336,5.794-10.336,13.259c0,7.413,3.498,13.207,10.336,13.207C216.596,32.678,219.937,26.883,219.937,19.471z"/>
	</g>
</g>
<g>
	<path fill-rule="evenodd" clip-rule="evenodd" fill="#0E8369" d="M225.543,107.282c6.051-9.026,11.978-17.863,18.02-26.875
		c8.908,3.883,17.666,7.698,26.806,11.682c-2.095,3.183-4.073,6.217-6.079,9.232c-4.369,6.567-8.762,13.117-13.126,19.686
		c-2.611,3.932-8.354,4.777-12.041,1.742c-2.561-2.106-2.269-5.207,0.641-6.812c3.488-1.924,7.399-1.137,11.638,2.459
		c5.124-7.667,10.233-15.312,15.548-23.264c-8.237-3.604-16.249-7.109-24.559-10.745c-2.702,4.007-5.402,7.983-8.073,11.98
		c-3.038,4.545-6.02,9.127-9.077,13.659c-2.604,3.861-8.685,4.461-12.096,1.25c-2.359-2.221-1.968-5.072,0.902-6.599
		C217.657,102.762,221.789,103.62,225.543,107.282z"/>
	<path fill-rule="evenodd" clip-rule="evenodd" fill="#76B793" d="M224.789,105.176c6.052-9.026,11.979-17.863,18.02-26.875
		c8.909,3.883,17.667,7.698,26.807,11.682c-2.095,3.183-4.073,6.217-6.08,9.232c-4.368,6.566-8.761,13.117-13.125,19.685
		c-2.612,3.932-8.354,4.777-12.042,1.743c-2.56-2.106-2.269-5.207,0.642-6.812c3.488-1.925,7.398-1.137,11.637,2.459
		c5.125-7.667,10.234-15.312,15.549-23.264c-8.238-3.604-16.25-7.109-24.559-10.745c-2.702,4.006-5.402,7.983-8.073,11.98
		c-3.038,4.545-6.021,9.127-9.078,13.659c-2.604,3.861-8.685,4.461-12.096,1.25c-2.358-2.221-1.968-5.072,0.902-6.599
		C216.903,100.656,221.035,101.514,224.789,105.176z"/>
</g>
<g>
	<path fill-rule="evenodd" clip-rule="evenodd" fill="#0E8369" d="M41.796,125.12c-3.509-10.285-6.943-20.355-10.446-30.624
		c8.489-4.73,16.833-9.381,25.542-14.234c1.261,3.596,2.474,7.009,3.656,10.432c2.573,7.456,5.119,14.92,7.696,22.374
		c1.543,4.46-1.266,9.54-5.916,10.632c-3.227,0.759-5.516-1.353-5.028-4.64c0.585-3.94,3.582-6.574,9.012-7.763
		c-2.99-8.723-5.972-17.422-9.073-26.469c-7.86,4.365-15.505,8.611-23.435,13.015c1.548,4.578,3.073,9.136,4.632,13.684
		c1.772,5.172,3.609,10.321,5.358,15.5c1.492,4.411-1.718,9.611-6.339,10.377c-3.196,0.53-5.227-1.511-4.701-4.719
		C33.42,128.651,36.608,125.885,41.796,125.12z"/>
	<path fill-rule="evenodd" clip-rule="evenodd" fill="#76B793" d="M39.665,124.443c-3.509-10.285-6.942-20.356-10.446-30.624
		c8.489-4.73,16.833-9.381,25.543-14.234c1.261,3.596,2.475,7.009,3.656,10.433c2.573,7.455,5.119,14.919,7.696,22.373
		c1.543,4.461-1.266,9.54-5.916,10.633c-3.227,0.758-5.516-1.353-5.028-4.64c0.584-3.941,3.582-6.573,9.011-7.763
		c-2.989-8.724-5.971-17.423-9.072-26.47c-7.861,4.366-15.506,8.612-23.435,13.015c1.548,4.578,3.073,9.137,4.632,13.684
		c1.772,5.172,3.608,10.322,5.358,15.501c1.492,4.411-1.718,9.612-6.339,10.377c-3.196,0.529-5.226-1.511-4.701-4.719
		C31.289,127.973,34.477,125.208,39.665,124.443z"/>
</g>
<rect x="68.013" y="49.534" fill-rule="evenodd" clip-rule="evenodd" fill="#76B793" width="159.33" height="2.224"/>
<g>
	<g>
		<path fill="#9F786A" d="M75.876,90.047c0.346-1.308,0.519-3.019,0.519-5.133c0-5.204-0.407-10.218-1.221-15.043
			c-0.814-4.825-1.861-8.449-3.143-10.872c1.307-0.319,2.256-0.479,2.845-0.479c0.846,0,1.464,0.396,1.855,1.187
			c0.391,0.792,0.887,2.664,1.49,5.618c0.936,4.537,1.615,10.752,2.038,18.647c4.28-8.817,7.772-15.731,10.477-20.743
			c0.167-0.025,0.289-0.044,0.365-0.058C91.64,63.057,92.005,63,92.197,63c1.064,0,1.596,0.506,1.596,1.519
			c0,0.295-0.032,0.66-0.096,1.096c-0.513,4.166-0.769,7.241-0.769,9.228l-0.058,2.191l-0.019,1.307c0,4.806,0.73,7.209,2.191,7.209
			c1.666,0,3.371-1.742,5.114-5.227c1.935-3.894,2.902-8.442,2.902-13.643c0-2.242-0.557-4.33-1.672-6.264
			c0.923-0.229,1.762-0.345,2.519-0.345c1.179,0,2.012,0.33,2.499,0.99c0.487,0.66,0.73,1.803,0.73,3.43
			c0,5.265-1.519,10.632-4.556,16.102c-1.397,2.511-2.97,4.58-4.719,6.207c-1.75,1.627-3.278,2.44-4.585,2.44
			c-1.461,0-2.489-0.813-3.085-2.441c-0.596-1.627-0.894-4.44-0.894-8.439c0-1.602,0.083-4.062,0.25-7.382
			c-3.088,5.362-5.447,9.788-7.074,13.277l-0.636,1.405c-0.913,1.873-1.635,3.008-2.169,3.406
			C79.132,89.463,77.869,89.791,75.876,90.047z"/>
		<path fill="#9F786A" d="M114.324,81.236c0,3.747,1.589,5.62,4.768,5.62c2.755,0,5.792-1.311,9.112-3.932
			c3.319-2.622,6.312-6.074,8.978-10.358l1.634,0.901c-2.512,4.688-5.777,8.568-9.794,11.642s-7.827,4.61-11.428,4.61
			c-2.307,0-4.13-0.743-5.469-2.23c-1.339-1.486-2.009-3.518-2.009-6.094c0-3.716,1.214-6.895,3.643-9.535s5.354-3.96,8.776-3.96
			c1.653,0,2.976,0.417,3.97,1.249c0.993,0.833,1.49,1.947,1.49,3.343c0,2.293-1.381,4.323-4.143,6.091
			C121.087,80.353,117.912,81.236,114.324,81.236z M114.478,79.391c2.678-0.141,4.976-0.907,6.892-2.3
			c1.916-1.394,2.874-3.004,2.874-4.832c0-1.636-0.73-2.454-2.191-2.454c-1.743,0-3.352,0.933-4.825,2.799
			C115.753,74.47,114.836,76.732,114.478,79.391z"/>
		<path fill="#9F786A" d="M152.079,79.782l-0.385,0.73c-1.614,3.012-2.421,5.344-2.421,6.998c0,0.487,0.186,0.961,0.557,1.422
			c-0.308,0.103-1,0.353-2.076,0.75c-0.5,0.179-0.974,0.269-1.422,0.269c-0.897,0-1.346-0.43-1.346-1.288
			c0-1.781,1.108-4.499,3.326-8.151l0.596-0.98h-0.98c-2.102,0-3.729,0.327-4.883,0.98c0.602-2.166,2.223-3.249,4.863-3.249
			l2.384,0.058l0.519-0.769c2.012-3.024,5.088-7.094,9.228-12.207c1.396-1.73,2.441-2.807,3.133-3.229
			c0.692-0.423,2.031-0.808,4.018-1.153c-0.371,2.307-0.557,4.453-0.557,6.439c0,5.268,0.608,10.605,1.826,16.014
			c0.666,2.973,1.686,4.889,3.057,5.748c-1.205,1.192-2.236,1.788-3.096,1.788c-2.024,0-3.588-3.473-4.689-10.419
			c-2.115,0.231-4.249,0.346-6.402,0.346L152.079,79.782z M153.464,77.513l3.883,0.096c2.652,0,4.684-0.089,6.094-0.269
			c-0.59-4.499-0.885-8.228-0.885-11.188l0.02-1.442c-0.423,0.538-1.371,1.705-2.845,3.499c-2.666,3.268-4.62,6.12-5.863,8.555
			L153.464,77.513z"/>
		<path fill="#9F786A" d="M181.434,89.105c-0.876,0.41-1.577,0.615-2.104,0.615c-1.314,0-1.971-0.577-1.971-1.73
			c0-0.589,0.23-2.057,0.691-4.402l0.962-4.787c0.589-2.845,0.884-4.953,0.884-6.325c0-0.743-0.211-1.365-0.634-1.865
			c1.345-0.461,2.441-0.692,3.287-0.692c0.897,0,1.346,0.57,1.346,1.711c0,0.705-0.318,2.557-0.954,5.556l-1.087,5.594
			c2.419-4.703,4.855-8.359,7.308-10.967c2.451-2.608,4.676-3.912,6.674-3.912c0.703,0,1.312,0.202,1.824,0.605
			c0.512,0.404,0.768,0.894,0.768,1.471c0,0.897-0.974,2.089-2.922,3.576c-0.486-1.012-1.178-1.519-2.072-1.519
			c-1.626,0-3.699,1.73-6.221,5.19c-1.561,2.153-2.918,4.373-4.07,6.661c-1.151,2.288-1.727,3.919-1.727,4.893L181.434,89.105z"/>
		<path fill="#9F786A" d="M201.927,81.236c0,3.747,1.588,5.62,4.768,5.62c2.754,0,5.792-1.311,9.111-3.932
			c3.318-2.622,6.312-6.074,8.977-10.358l1.635,0.901c-2.512,4.688-5.777,8.568-9.795,11.642s-7.826,4.61-11.428,4.61
			c-2.307,0-4.131-0.743-5.469-2.23c-1.34-1.486-2.01-3.518-2.01-6.094c0-3.716,1.215-6.895,3.643-9.535
			c2.43-2.64,5.354-3.96,8.776-3.96c1.653,0,2.976,0.417,3.97,1.249c0.992,0.833,1.49,1.947,1.49,3.343
			c0,2.293-1.382,4.323-4.143,6.091C208.689,80.353,205.515,81.236,201.927,81.236z M202.08,79.391
			c2.679-0.141,4.976-0.907,6.892-2.3c1.916-1.394,2.874-3.004,2.874-4.832c0-1.636-0.73-2.454-2.191-2.454
			c-1.743,0-3.352,0.933-4.825,2.799C203.354,74.47,202.438,76.732,202.08,79.391z"/>
	</g>
	<g>
		<path fill="#D8A98D" d="M74.394,88.565c0.346-1.308,0.519-3.019,0.519-5.133c0-5.204-0.407-10.218-1.221-15.043
			c-0.814-4.825-1.861-8.449-3.143-10.872c1.307-0.319,2.256-0.479,2.845-0.479c0.846,0,1.464,0.396,1.855,1.187
			c0.391,0.792,0.887,2.664,1.49,5.618c0.936,4.537,1.615,10.752,2.038,18.647c4.28-8.817,7.772-15.731,10.477-20.743
			c0.167-0.025,0.289-0.044,0.365-0.058c0.539-0.115,0.904-0.173,1.096-0.173c1.064,0,1.596,0.506,1.596,1.519
			c0,0.295-0.032,0.66-0.096,1.096c-0.513,4.166-0.769,7.241-0.769,9.228l-0.058,2.191l-0.019,1.307c0,4.806,0.73,7.209,2.191,7.209
			c1.666,0,3.371-1.742,5.114-5.227c1.935-3.894,2.902-8.442,2.902-13.643c0-2.242-0.557-4.33-1.672-6.264
			c0.923-0.229,1.762-0.345,2.519-0.345c1.179,0,2.012,0.33,2.499,0.99c0.487,0.66,0.73,1.803,0.73,3.43
			c0,5.265-1.519,10.632-4.556,16.102c-1.397,2.511-2.97,4.58-4.719,6.207c-1.75,1.627-3.278,2.44-4.585,2.44
			c-1.461,0-2.489-0.813-3.085-2.441c-0.596-1.627-0.894-4.44-0.894-8.439c0-1.602,0.083-4.062,0.25-7.382
			c-3.088,5.362-5.447,9.788-7.074,13.277l-0.636,1.405c-0.913,1.873-1.635,3.008-2.169,3.406
			C77.649,87.981,76.386,88.308,74.394,88.565z"/>
		<path fill="#D8A98D" d="M112.842,79.754c0,3.747,1.589,5.62,4.768,5.62c2.755,0,5.792-1.311,9.112-3.932
			c3.319-2.622,6.312-6.074,8.978-10.358l1.634,0.901c-2.512,4.688-5.777,8.568-9.794,11.642s-7.827,4.61-11.428,4.61
			c-2.307,0-4.13-0.743-5.469-2.23c-1.339-1.486-2.009-3.518-2.009-6.094c0-3.716,1.214-6.895,3.643-9.535s5.354-3.96,8.776-3.96
			c1.653,0,2.976,0.417,3.97,1.249c0.993,0.833,1.49,1.947,1.49,3.343c0,2.293-1.381,4.323-4.143,6.091
			C119.605,78.87,116.43,79.754,112.842,79.754z M112.996,77.908c2.678-0.141,4.976-0.907,6.892-2.3
			c1.916-1.394,2.874-3.004,2.874-4.832c0-1.636-0.73-2.454-2.191-2.454c-1.743,0-3.352,0.933-4.825,2.799
			C114.271,72.988,113.354,75.25,112.996,77.908z"/>
		<path fill="#D8A98D" d="M150.597,78.299l-0.385,0.73c-1.614,3.012-2.421,5.344-2.421,6.998c0,0.487,0.186,0.961,0.557,1.422
			c-0.308,0.103-1,0.353-2.076,0.75c-0.5,0.179-0.974,0.269-1.422,0.269c-0.897,0-1.346-0.43-1.346-1.288
			c0-1.781,1.108-4.499,3.326-8.151l0.596-0.98h-0.98c-2.102,0-3.729,0.327-4.883,0.98c0.602-2.166,2.223-3.249,4.863-3.249
			l2.384,0.058l0.519-0.769c2.012-3.024,5.088-7.094,9.228-12.207c1.396-1.73,2.441-2.807,3.133-3.229
			c0.692-0.423,2.031-0.808,4.018-1.153c-0.371,2.307-0.557,4.453-0.557,6.439c0,5.268,0.608,10.605,1.826,16.014
			c0.666,2.973,1.686,4.889,3.057,5.748c-1.205,1.192-2.236,1.788-3.096,1.788c-2.024,0-3.588-3.473-4.689-10.419
			c-2.115,0.231-4.249,0.346-6.402,0.346L150.597,78.299z M151.981,76.031l3.883,0.096c2.652,0,4.684-0.089,6.094-0.269
			c-0.59-4.499-0.885-8.228-0.885-11.188l0.02-1.442c-0.423,0.538-1.371,1.705-2.845,3.499c-2.666,3.268-4.62,6.12-5.863,8.555
			L151.981,76.031z"/>
		<path fill="#D8A98D" d="M179.951,87.623c-0.876,0.41-1.577,0.615-2.104,0.615c-1.314,0-1.971-0.577-1.971-1.73
			c0-0.589,0.23-2.057,0.691-4.402l0.962-4.787c0.589-2.845,0.884-4.953,0.884-6.325c0-0.743-0.211-1.365-0.634-1.865
			c1.345-0.461,2.441-0.692,3.287-0.692c0.897,0,1.346,0.57,1.346,1.711c0,0.705-0.318,2.557-0.954,5.556l-1.087,5.594
			c2.419-4.703,4.855-8.359,7.308-10.967c2.451-2.608,4.676-3.912,6.674-3.912c0.703,0,1.312,0.202,1.824,0.605
			c0.512,0.404,0.768,0.894,0.768,1.471c0,0.897-0.974,2.089-2.922,3.576c-0.486-1.012-1.178-1.519-2.072-1.519
			c-1.626,0-3.699,1.73-6.221,5.19c-1.561,2.153-2.918,4.373-4.07,6.661c-1.151,2.288-1.727,3.919-1.727,4.893L179.951,87.623z"/>
		<path fill="#D8A98D" d="M200.444,79.754c0,3.747,1.588,5.62,4.768,5.62c2.754,0,5.792-1.311,9.111-3.932
			c3.318-2.622,6.312-6.074,8.977-10.358l1.635,0.901c-2.512,4.688-5.777,8.568-9.795,11.642s-7.826,4.61-11.428,4.61
			c-2.307,0-4.131-0.743-5.469-2.23c-1.34-1.486-2.01-3.518-2.01-6.094c0-3.716,1.215-6.895,3.643-9.535
			c2.43-2.64,5.354-3.96,8.776-3.96c1.653,0,2.976,0.417,3.97,1.249c0.992,0.833,1.49,1.947,1.49,3.343
			c0,2.293-1.382,4.323-4.143,6.091C207.207,78.87,204.032,79.754,200.444,79.754z M200.598,77.908
			c2.679-0.141,4.976-0.907,6.892-2.3c1.916-1.394,2.874-3.004,2.874-4.832c0-1.636-0.73-2.454-2.191-2.454
			c-1.743,0-3.352,0.933-4.825,2.799C201.872,72.988,200.956,75.25,200.598,77.908z"/>
	</g>
</g>
</svg>
