<?xml version="1.0" encoding="utf-8"?>
<!-- Generator: Adobe Illustrator 16.0.0, SVG Export Plug-In . SVG Version: 6.00 Build 0)  -->
<!DOCTYPE svg PUBLIC "-//W3C//DTD SVG 1.1//EN" "http://www.w3.org/Graphics/SVG/1.1/DTD/svg11.dtd">
<svg version="1.1" id="Layer_1" xmlns="http://www.w3.org/2000/svg" xmlns:xlink="http://www.w3.org/1999/xlink" x="0px" y="0px"
	 width="298.662px" height="262.065px" viewBox="0 0 298.662 262.065" enable-background="new 0 0 298.662 262.065"
	 xml:space="preserve">
<path fill="#76B793" d="M149.528,109.633L42.504,161.926v39.016H256.55v-39.016L149.528,109.633z M210.13,156.943
	c0.746,0.796,1.476,1.575,2.235,2.387c-0.379,1.058-0.771,2.145-1.175,3.271c-0.312-0.094-0.534-0.16-0.815-0.244
	c1.663-2.252-0.009-3.178-1.851-4.057C209.347,157.843,210.222,157.808,210.13,156.943z M206.821,150.509
	c0.768-0.114,1.597-0.82,2.763-0.133c-0.985,0.631-1.88,1.201-2.991,1.91C206.679,151.628,206.741,151.134,206.821,150.509z
	 M119.835,150.296c0.046,0.332-0.345,0.723-0.619,1.234c-0.355-0.762-0.557-1.193-0.757-1.625
	C119.112,149.671,119.763,149.77,119.835,150.296z M120.837,176.54c-3.647-0.087-7.293-0.232-10.94-0.358
	c-0.128-0.004-0.256-0.043-0.562-0.098c1.654-0.847,3.213-1.245,4.914-0.927c0.263,0.049,0.528,0.129,0.791,0.128
	c3.302-0.02,6.604-0.056,9.904-0.073c0.64-0.003,1.279,0.068,1.919,0.092c0.528,0.02,1.091,0.142,1.575,0
	c0.956-0.278,1.785-0.05,2.688,0.357c-0.721,0.941-1.462,1.501-2.7,1.152c-0.893-0.25-1.856-0.316-2.792-0.333
	C124.037,176.45,122.436,176.577,120.837,176.54z M162.33,175.631c-4.36,0.606-8.767,0.981-13.076,1.837
	c-6.559,1.301-13.15,1.082-19.753,0.98c-0.709-0.011-1.426-0.242-2.116-0.451c-0.288-0.088-0.513-0.385-0.766-0.587
	c0.033-0.068,0.068-0.136,0.102-0.204c0.33,0.04,0.667,0.055,0.99,0.127c0.97,0.213,1.931,0.463,2.901,0.672
	c1.009,0.216,1.988,0.116,3.018-0.057c1.413-0.235,2.903-0.339,4.315-0.154c2.126,0.278,4.187-0.059,6.254-0.307
	c2.338-0.279,4.653-0.75,6.978-1.143c1.653-0.279,3.303-0.588,4.961-0.836c0.441-0.066,0.91,0.016,1.362,0.072
	c1.148,0.142,2.239,0.041,3.265-0.568c0.516-0.307,1.064-0.431,1.674-0.109c0.301,0.158,0.703,0.123,1.059,0.176
	c0.017,0.069,0.033,0.139,0.05,0.207C163.144,175.404,162.744,175.573,162.33,175.631z M225.032,165.509
	c-1.166,1.234-2.449,2.023-4.221,1.273c-0.198-0.085-0.48-0.044-0.705,0.012c-5.006,1.266-10.068,2.173-15.188,2.873
	c-3.502,0.479-6.928,1.491-10.404,2.177c-3.528,0.696-7.078,1.284-10.619,1.919c-0.034-0.102-0.069-0.203-0.104-0.305
	c0.792-0.299,1.574-0.625,2.38-0.882c0.41-0.131,0.807-0.182,0.61-0.835c-0.229,0.068-0.464,0.139-0.673,0.201
	c-0.844-1.323-2.197-1.424-3.714-1.73c-0.033,0.942-0.133,1.777-0.073,2.602c0.072,1.016-0.17,1.356-1.2,1.459
	c-3.716,0.374-7.427,0.782-11.146,1.135c-1.577,0.15-3.164,0.221-4.75,0.271c-0.283,0.009-0.576-0.263-0.971-0.457
	c0.681-0.562,1.239-0.845,2.008-0.661c0.421,0.1,0.895,0.04,1.337-0.016c1.249-0.157,2.494-0.35,3.794-0.691
	c-0.426-0.157-0.856-0.305-1.279-0.475c-0.426-0.174-0.844-0.368-1.136-0.498c-0.493,0.109-1.003,0.39-1.323,0.246
	c-0.34-0.152-0.499-0.707-0.756-1.117c-1.545,0.297-1.727,0.401-2.085,1.227c-1.72-0.027-3.552,0.299-4.649-1.637
	c-0.056,0.047-0.111,0.094-0.168,0.141c0.042,0.756,0.083,1.511,0.13,2.376c-1.548,0.214-2.949,1.503-4.711,0.468
	c0-0.66,0-1.368,0-2.078c-0.058-0.014-0.114-0.027-0.173-0.041c-0.15,0.232-0.303,0.465-0.514,0.787
	c-0.994-0.708-1.867-0.519-2.599,0.639c-0.605-0.391-1.176-0.771-1.758-1.128c-0.219-0.136-0.458-0.288-0.703-0.322
	c-0.745-0.101-1.496-0.162-2.248-0.206c-0.221-0.013-0.553,0.008-0.655,0.145c-0.438,0.59-1.03,0.593-1.657,0.564
	c-0.35-0.015-0.702-0.022-1.048,0.01c-1.323,0.123-2.524-0.001-3.494-1.111c-0.326-0.373-0.964-0.475-1.578-0.753
	c-0.022-0.091-0.083-0.344-0.158-0.653c-0.718,0.341-0.506,0.885-0.255,1.275c0.321,0.499,0.491,1-0.057,1.293
	c-0.382,0.206-1.021,0.248-1.408,0.067c-1.033-0.481-2.002-1.106-2.97-1.716c-0.18-0.112-0.236-0.42-0.377-0.691
	c-0.652,0.004-1.309-0.204-1.845,0.701c-0.291,0.492-1.242,0.643-1.926,0.838c-0.648,0.184-1.26,0.326-1.923-0.309
	c-0.286-0.273-1.378-0.092-1.812,0.252c-1.052,0.831-2.178,0.66-3.309,0.561c-0.797-0.07-1.574-0.348-2.37-0.457
	c-0.75-0.103-1.514-0.111-2.272-0.153c-0.238-0.014-0.483,0.03-0.717-0.003c-1.022-0.148-2.04-0.332-3.063-0.471
	c-0.954-0.129-1.911-0.271-2.87-0.309c-1.004-0.038-2.012,0.041-3.019,0.069c-0.005,0.084-0.01,0.169-0.014,0.253
	c-0.243-0.204-0.486-0.408-0.71-0.597c-1.156,0.341-2.286,0.674-3.204,0.945c-0.249-0.556-0.41-1.188-0.794-1.62
	c-0.124-0.139-0.839,0.252-1.346,0.42c-0.126-0.05-0.419-0.266-0.704-0.258c-0.594,0.02-0.793,0.481-0.406,0.828
	c0.117,0.104,0.283,0.151,0.418,0.239c0.104,0.067,0.195,0.157,0.291,0.237c-0.016,0.092-0.032,0.184-0.048,0.274
	c-0.832-0.099-1.663-0.197-2.494-0.296c-0.038,0.07-0.076,0.141-0.114,0.211c0.775,0.424,1.505,1.004,2.334,1.235
	c1.358,0.378,2.792,0.474,4.169,0.796c0.869,0.205,1.692,0.605,2.536,0.918c-0.011,0.084-0.021,0.168-0.031,0.252
	c-0.266,0.041-0.545,0.154-0.796,0.11c-1.713-0.3-3.459-0.501-5.119-0.993c-1.523-0.453-2.935-1.273-4.425-1.855
	c-1.43-0.559-2.848-1.248-4.478-0.801c-1.72,0.474-3.472,0.684-5.265,0.577c-1.084-0.063-2.176-0.012-3.255-0.012
	c0.088-0.684,0.442-1.039,1.313-0.971c3.573,0.278,6.968-0.81,10.418-1.456c0.715-0.134,1.025-0.707,0.672-1.334
	c-0.779-1.38-1.618-2.746-3.487-2.813c-0.318-0.012-0.644-0.075-0.948-0.171c-0.792-0.25-1.5-0.289-2.107,0.439
	c-0.132,0.158-0.535,0.185-0.784,0.133c-0.545-0.114-1.071-0.318-1.765-0.535c0.026,0.337-0.046,0.656,0.075,0.771
	c0.869,0.826,0.806,2.004,1.148,3.018c0.096,0.285-0.189,0.754-0.406,1.062c-0.081,0.117-0.576,0.121-0.688-0.001
	c-0.243-0.267-0.344-0.657-0.535-0.979c-0.284-0.48-0.596-0.944-1.027-1.399c-0.08,1.025-0.651,1.312-1.546,1.225
	c0.054,0.244,0.088,0.398,0.162,0.734c-1.119-0.164-2.149-0.3-3.173-0.475c-0.284-0.049-0.601-0.153-0.808-0.338
	c-0.233-0.209-0.359-0.536-0.532-0.812c0.327-0.199,0.653-0.4,1.072-0.658c-0.437-0.662-0.946-1.435-1.455-2.207
	c0-0.322,0-0.645,0-0.968c0.091-0.246,0.195-0.488,0.271-0.739c0.194-0.631,0.553-1.056,1.221-1.27
	c0.522-0.168,0.993-0.494,1.528-0.771c-0.174-0.326-0.304-0.557-0.422-0.793c-0.211-0.419-0.491-0.777-0.022-1.284
	c0.252-0.271,0.244-0.806,0.302-1.229c0.07-0.494,0.304-0.691,0.81-0.658c0.584,0.037,1.171,0.008,1.887,0.008
	c-0.443-0.979-0.113-1.744,0.715-2.254c0.284-0.176,0.713-0.128,1.078-0.155c0.355-0.026,0.815,0.119,1.05-0.054
	c0.544-0.402,1.106-0.879,1.432-1.454c0.57-1.005,1.546-1.063,2.459-1.285c0.156-0.038,0.51,0.218,0.569,0.403
	c0.146,0.454,0.418,0.678,0.859,0.685c0.533,0.009,0.732,0.293,0.851,0.774c0.061,0.247,0.316,0.446,0.483,0.668
	c0.069-0.035,0.138-0.068,0.207-0.102c0.039-0.33,0.079-0.661,0.132-1.113c0.425,0.034,0.837,0.064,1.25,0.104
	c0.105,0.011,0.209,0.049,0.312,0.082c1.572,0.523,3.436,0.67,3.567,3.073c0.671-0.915,1.288-1.567,1.173-2.593
	c-0.053-0.477-0.013-1.029,0.608-1.283c0.16-0.065,0.22-0.373,0.356-0.627c0.228,0.174,0.482,0.396,0.764,0.574
	c0.511,0.322,0.754,0.715,0.553,1.344c-0.052,0.16,0.108,0.389,0.172,0.586c0.183-0.104,0.439-0.162,0.536-0.318
	c0.293-0.479,0.542-0.988,0.774-1.502c0.216-0.477,0.094-0.815-0.443-0.998c-1.029-0.35-1.025-0.363-0.693-1.412
	c0.072-0.229,0.15-0.455,0.222-0.674c1.731-0.031,3.171,1.362,3.254,3.049c0.04,0.813,0.208,1.62,0.317,2.43
	c0.073,0,0.146,0,0.219,0c0.051-0.129,0.151-0.264,0.142-0.389c-0.108-1.4,0.661-2.559,1.055-3.816
	c0.373-1.191,1.066-2.127,2.388-2.357c0.281-0.05,0.596,0.133,0.898,0.149c0.422,0.021,0.868,0.067,1.267-0.037
	c1.068-0.28,2.015-0.057,2.764,0.432c-0.09,0.544-0.138,1.007-0.254,1.452c-0.058,0.225-0.24,0.416-0.486,0.818
	c0.643,0.554,1.324,1.139,2.038,1.754c0.403-0.807,0.707-1.412,1.008-2.018c0.101,0.026,0.202,0.052,0.303,0.077
	c0.137,0.507,0.231,1.03,0.429,1.512c0.111,0.269,0.395,0.467,0.601,0.696c0.181-0.236,0.477-0.453,0.522-0.713
	c0.16-0.92,0.396-1.764-0.241-2.747c-0.548-0.847-0.119-1.919,0.831-2.694c0.785,0.945,2.22,1.167,2.827,2.411
	c-0.502,0.271-0.913,0.493-1.336,0.723c0.427,0.936,0.824,1.806,1.241,2.718c0.194-0.118,0.418-0.254,0.693-0.42
	c-0.136-0.215-0.255-0.404-0.374-0.59c0.009-0.031,0.008-0.062,0.024-0.082c0.068-0.088,1.889,0.061,1.92,0.17
	c0.173,0.598,0.564,0.715,1.157,0.475c0,0.424,0,0.79,0,1.15c0.716,0.098,1.183-0.381,1.215-1.688
	c0.013-0.553-0.474-1.32-0.96-1.621c-0.449-0.276-1.203-0.059-1.869-0.059c0.207-0.648,0.399-1.317,0.644-1.967
	c0.062-0.163,0.277-0.318,0.453-0.367c0.078-0.021,0.249,0.219,0.349,0.36c0.662,0.939,1.306,1.893,1.986,2.819
	c0.104,0.141,0.364,0.227,0.557,0.234c2.419,0.107,4.107,1.555,5.74,3.106c0.058,0.056,0.162,0.115,0.162,0.173
	c-0.001,1.516,1.927,1.568,2.049,2.983c0.113-0.019,0.226-0.038,0.339-0.058c0.035-0.253,0.152-0.531,0.084-0.752
	c-0.1-0.325-0.335-0.607-0.508-0.911c-0.156-0.273-0.304-0.55-0.566-1.026c1.388-0.175,2.62-0.33,3.852-0.484
	c0.029,0.06,0.059,0.119,0.089,0.179c-0.265,0.157-0.511,0.391-0.796,0.461c-1.112,0.273-1.265,0.537-0.825,1.479
	c0.646-0.408,1.386-0.726,1.927-1.249c1.176-1.136,1.553-2.534,0.888-4.245c0.324,0.123,0.548,0.258,0.786,0.286
	c0.318,0.038,0.713,0.106,0.955-0.04c0.582-0.351,0.919-0.096,1.363,0.35c-0.43,0.052-0.761,0.09-1.09,0.129
	c-0.028,0.067-0.056,0.134-0.084,0.201c0.387,0.189,0.773,0.378,1.23,0.602c-0.214,0.348-0.376,0.612-0.556,0.902
	c0.381,0.3,0.705,0.58,0.882-0.159c0.455,0.18,0.873,0.344,1.377,0.544c0.328-1.006-0.586-1.49-0.708-2.367
	c1.172,0.83,2.344,1.659,3.683,2.606c-0.143-0.358-0.214-0.536-0.283-0.713c0.029-0.074,0.059-0.149,0.09-0.224
	c0.889,0.304,1.775,0.609,2.665,0.908c0.554,0.188,1.114,0.352,1.661,0.553c0.467,0.171,0.943,0.338,1.371,0.582
	c1.242,0.709,2.567,1.111,3.99,1.117c1.629,0.008,3.135,0.332,4.669,0.967c1.479,0.611,3.16,0.736,4.756,1.061
	c0.177,0.035,0.408,0.037,0.556-0.047c1.182-0.674,2.275-0.044,3.394,0.203c0.786,0.175,1.56,0.416,2.353,0.533
	c0.976,0.144,1.895,0.004,2.762-0.594c0.584-0.404,1.317-0.589,1.973-0.898c1.065-0.505,2.118-1.038,3.184-1.544
	c0.209-0.099,0.463-0.206,0.677-0.175c2.01,0.294,3.38-0.928,4.833-1.98c0.306-0.222,0.667-0.406,1.032-0.501
	c0.542-0.141,1.11-0.185,1.667-0.271c1.127-0.174,2.057-0.692,2.861-1.505c0.793-0.803,1.803-1.063,2.928-1.094
	c1.04-0.027,2.073-0.24,3.113-0.33c0.285-0.024,0.584,0.087,0.873,0.156c0.56,0.135,1.118,0.284,1.912,0.488
	c-0.363,0.327-0.649,0.568-0.916,0.83c-0.176,0.173-0.369,0.352-0.479,0.565c-0.561,1.099-1.617,1.448-2.993,0.783
	c0.847-0.202,1.505-0.358,2.333-0.556c-0.309-0.195-0.514-0.422-0.748-0.457c-0.912-0.136-1.834-0.219-2.754-0.305
	c-0.196-0.018-0.441-0.033-0.59,0.064c-1.322,0.858-2.85,1.546-3.865,2.686c-0.73,0.82-1.479,0.771-2.281,1.009
	c-0.344,0.101-0.638,0.368-1.067,0.628c0.388,0.357,0.732,0.643,1.032,0.965c0.17,0.184,0.377,0.435,0.371,0.65
	c-0.01,0.358-0.178,0.713-0.277,1.07c-0.571-0.169-1.164-0.29-1.705-0.527c-0.264-0.115-0.584-0.676-0.619-0.651
	c-0.474,0.319-1.125,0.628-1.289,1.095c-0.277,0.789-0.237,1.688-0.333,2.566c-0.776-0.487-1.03-1.327-0.884-2.367
	c-1.029,0.667-1.346,2.169-0.723,3.243c0.45,0.776,0.45,0.776,0.041,1.488c-0.434-0.86-0.862-1.677-1.259-2.509
	c-0.221-0.467-0.546-0.559-1.036-0.504c-1.271,0.14-2.436,0.365-3.314,1.491c-0.476,0.607-1.243,1.011-1.932,1.421
	c-0.618,0.369-1.284,0.421-2.002,0.097c-0.346-0.156-0.996-0.2-1.193,0.007c-0.316,0.33-0.395,0.906-0.504,1.394
	c-0.014,0.058,0.387,0.247,0.613,0.312c0.318,0.092,0.671,0.076,0.979,0.188c0.66,0.235,1.211,0.75,2.037,0.475
	c0.291-0.098,0.756,0.172,1.084,0.37c0.434,0.262,0.848,0.581,1.203,0.94c0.863,0.87,1.891,0.858,2.986,0.682
	c0.688-0.11,1.409-0.064,2.068-0.254c0.396-0.115,0.701-0.547,1.19-0.955c-0.513-0.194-0.771-0.291-1.032-0.391
	c0.859-1.399,1.339-1.512,2.123-0.516c0.992-0.118,1.694-0.607,2.223-1.484c0.494-0.821,1.164-1.535,1.73-2.314
	c0.164-0.226,0.24-0.516,0.361-0.789c0.35,0.964,1.409,1.478,2.387,1.174c0.855-0.266,0.906-0.514,0.462-2.443
	c0.335-0.148,0.688-0.305,1.128-0.5c0.206,0.666,0.447,1.268,0.556,1.891c0.041,0.236-0.185,0.717-0.356,0.75
	c-0.436,0.086-0.836,0.252-0.627,0.662c0.148,0.288,0.748,0.586,1.051,0.508c0.742-0.196,1.622,0.081,2.236-0.667
	c0.236-0.288,0.866-0.003,1.055-0.635c0.186-0.625,0.555-1.192-0.125-1.827c1.666-0.061,2.443,1.178,3.611,1.959
	c-0.344,0.112-0.602,0.197-0.939,0.309c0.177,0.703,0.355,1.413,0.533,2.123c0.058,0.016,0.116,0.031,0.176,0.046
	c0.268-0.597,0.533-1.196,0.805-1.791c0.256-0.558,0.449-1.159,0.794-1.655c0.315-0.455,0.769-0.586,1.141,0.045
	c0.299,0.506,0.638,0.988,0.981,1.514c-0.274,0.227-0.514,0.426-0.871,0.721c0.55,0.82,1.021,1.7,1.663,2.43
	c0.716,0.816,1.351,0.794,2.263,0.166c0.288-0.197,0.575-0.395,0.902-0.619c0.184,0.154,0.357,0.303,0.541,0.457
	c-0.123,0.279-0.229,0.521-0.385,0.88c0.49-0.097,0.887-0.175,1.467-0.288c-0.424-0.258-0.686-0.416-0.977-0.593
	c0.219-0.506,0.482-0.935,1.115-0.749c1.065,0.31,1.893-0.25,2.678-0.777c0.535-0.359,0.906-0.355,1.435-0.037
	c1.031,0.618,1.237,0.536,1.405-0.623c0.128-0.885,0.862-0.726,1.357-0.996c0.633,0.473,0.438,1.588,1.373,1.726
	c0.031-0.607-0.082-1.276,0.155-1.779c0.118-0.252,0.875-0.204,1.409-0.303c0.146,0.966,0.829,1.308,1.603,1.524
	C225.519,164.748,225.448,165.069,225.032,165.509z M93.116,167.37c0.01-0.183,0.309-0.351,0.475-0.525
	c0.205,0.198,0.552,0.375,0.59,0.602c0.087,0.533,0.029,1.092,0.029,1.669c-0.278,0.206-0.616,0.457-1.037,0.771
	c-0.121-0.191-0.376-0.484-0.331-0.543C93.323,168.723,93.082,168.036,93.116,167.37z M199.644,158.987
	c-0.123,0.827-0.258,1.718-0.42,2.791c-0.217-0.182-0.492-0.309-0.598-0.521c-0.351-0.698-0.641-1.427-0.951-2.14
	c-1.317,0.574-1.216,0.668-2.287-0.48c-0.992,0.433-1.48,0.068-1.478-1.064c0.002-0.391-0.088-0.784-0.152-1.307
	c0.347,0.156,0.599,0.271,0.88,0.396c0.277-0.596,0.682-0.991,1.422-0.846c0.109,0.021,0.275-0.105,0.377-0.204
	c0.442-0.427,0.869-0.87,1.441-1.275c-0.082,1.782,1.657,2.423,2.288,3.948c-0.837-0.469-1.452-0.814-2.099-1.178
	c-0.144,0.527-0.249,0.908-0.385,1.403C198.306,158.663,198.933,158.815,199.644,158.987z"/>
<g>
	<path fill="#76B793" d="M27.146,211.632c3.201,17.486,11.804,26.23,15.003,43.717c-12.762,2.337-19.122,3.679-31.773,6.717
		c2.364-9.707,3.632-14.559,6.345-24.256c-6.531-7.666-9.875-11.462-16.72-18.96C13.597,215.585,13.43,214.142,27.146,211.632z"/>
	<path fill="#76B793" d="M288.288,262.065c-12.539-3.01-18.839-4.344-31.484-6.666c3.209-17.484,11.815-26.227,15.025-43.711
		c13.589,2.495,13.358,3.926,26.833,7.161c-6.847,7.498-10.189,11.292-16.719,18.957
		C284.653,247.505,285.923,252.358,288.288,262.065z"/>
	<path fill="#0E8369" d="M273.479,245.731c-6.566,2.746-9.811,4.168-16.206,7.091c0.729-3.963,1.093-5.948,1.821-9.911
		C264.858,243.968,267.735,244.534,273.479,245.731z"/>
	<path fill="#0E8369" d="M41.712,252.97c-6.522-2.986-9.827-4.436-16.527-7.238c5.859-1.223,8.796-1.799,14.677-2.875
		C40.603,246.901,40.972,248.925,41.712,252.97z"/>
</g>
<g>
	<path fill="#D8A98D" d="M135.992,209.524c-0.861,0.012-1.722,0.025-2.583,0.039c0.037,2.203,0.075,4.406,0.112,6.609
		c0.889-0.016,1.777-0.029,2.666-0.041c1.364-0.02,2.812-0.508,2.782-3.326C138.935,209.675,137.061,209.509,135.992,209.524z"/>
	<path fill="#D8A98D" d="M173.916,209.749c-0.861-0.023-1.722-0.044-2.583-0.064c-0.051,2.203-0.103,4.405-0.154,6.607
		c0.889,0.021,1.777,0.043,2.666,0.066c1.364,0.035,2.83-0.395,2.913-3.212C176.851,210.017,174.985,209.776,173.916,209.749z"/>
	<path fill="#D8A98D" d="M182.64,214.24c1.038,0.036,2.076,0.075,3.115,0.115c-0.463-1.372-0.928-2.744-1.395-4.116
		C183.784,211.573,183.211,212.906,182.64,214.24z"/>
	<path fill="#D8A98D" d="M92.457,211.144c-1.098,0.066-2.195,0.135-3.292,0.205c0.06,0.934,0.119,1.867,0.179,2.8
		c1.094-0.069,2.188-0.138,3.282-0.204c1.051-0.062,1.602-0.433,1.539-1.51C94.107,211.438,93.46,211.084,92.457,211.144z"/>
	<path fill="#D8A98D" d="M36.013,216.252c-1.063,0.128-2.126,0.259-3.189,0.391c0.121,0.973,0.242,1.945,0.363,2.918
		c1.013-0.126,2.026-0.25,3.04-0.372c1.073-0.131,1.617-0.508,1.481-1.646C37.567,216.364,36.747,216.163,36.013,216.252z"/>
	<path fill="#D8A98D" d="M45.948,215.104c-1.094,0.121-2.188,0.243-3.281,0.367c0.105,0.93,0.211,1.859,0.317,2.788
		c1.09-0.124,2.181-0.246,3.271-0.366c1.047-0.115,1.58-0.512,1.464-1.584C47.612,215.316,46.949,214.995,45.948,215.104z"/>
	<path fill="#D8A98D" d="M231.855,216.883c-1.226-0.108-2.452-0.214-3.679-0.316c-0.077,0.923-0.154,1.846-0.232,2.769
		c1.131,0.096,2.261,0.192,3.391,0.291c0.844,0.075,1.716-0.023,1.827-1.26C233.241,217.479,232.702,216.957,231.855,216.883z"/>
	<path fill="#D8A98D" d="M116.324,209.737c-2.139,0.074-3.304,1.58-3.221,3.695c0.083,2.116,1.351,3.523,3.471,3.449
		c2.12-0.074,3.287-1.566,3.222-3.684C119.73,211.082,118.463,209.662,116.324,209.737z"/>
	<path fill="#D8A98D" d="M262.97,216.284c-0.856-0.104-1.712-0.207-2.568-0.308c-0.26,2.188-0.519,4.376-0.777,6.563
		c0.885,0.104,1.769,0.211,2.652,0.318c1.357,0.163,2.859-0.125,3.208-2.923C265.871,216.829,264.033,216.412,262.97,216.284z"/>
	<path fill="#D8A98D" d="M16.121,202.285c3.631,17.401,5.447,26.104,9.078,43.509c83.38-15.801,164.886-15.81,248.268,0
		c3.629-17.403,5.444-26.105,9.075-43.508C193.187,185.229,105.479,185.236,16.121,202.285z M37.051,220.61
		c-1.226,0.147-2.452,0.297-3.678,0.449c0.151,1.214,0.302,2.428,0.453,3.642c-0.627,0.077-1.254,0.156-1.881,0.235
		c-0.402-3.185-0.805-6.369-1.207-9.555c1.858-0.234,3.717-0.464,5.577-0.688c2.22-0.267,3.11,1.084,3.29,2.625
		C39.774,218.779,39.078,220.367,37.051,220.61z M48.57,222.987c-0.167-0.254-0.308-0.727-0.383-1.424
		c-0.148-1.367-0.429-2.314-1.817-2.162c-1.072,0.117-2.144,0.237-3.215,0.359c0.143,1.26,0.286,2.52,0.43,3.779
		c-0.628,0.071-1.256,0.144-1.883,0.216c-0.369-3.188-0.738-6.378-1.107-9.567c1.911-0.221,3.822-0.436,5.734-0.645
		c2.311-0.252,3.177,0.783,3.335,2.271c0.132,1.248-0.429,2.094-1.245,2.467c0.001,0.009,0.002,0.018,0.003,0.027
		c1.1,0.125,1.445,1.093,1.589,2.447c0.048,0.457,0.175,1.527,0.595,2.012C49.927,222.841,49.248,222.913,48.57,222.987z
		 M51.93,222.63c-0.333-3.193-0.667-6.387-1.001-9.579c2.624-0.274,5.248-0.538,7.873-0.79c0.048,0.502,0.097,1.003,0.145,1.504
		c-1.987,0.191-3.973,0.389-5.959,0.592c0.083,0.805,0.165,1.61,0.248,2.415c1.901-0.194,3.802-0.384,5.704-0.567
		c0.048,0.502,0.096,1.003,0.145,1.504c-1.898,0.184-3.797,0.372-5.695,0.566c0.091,0.886,0.182,1.771,0.272,2.657
		c2.006-0.206,4.012-0.405,6.019-0.598c0.048,0.501,0.097,1.003,0.145,1.504C57.192,222.091,54.561,222.354,51.93,222.63z
		 M71.14,220.821c-0.196-2.646-0.393-5.292-0.588-7.938c-0.009,0-0.017,0.002-0.026,0.002c-0.895,2.737-1.781,5.476-2.657,8.215
		c-0.537,0.047-1.074,0.094-1.61,0.143c-1.334-2.545-2.677-5.087-4.03-7.626c-0.008,0.001-0.017,0.002-0.025,0.003
		c0.27,2.639,0.54,5.277,0.81,7.917c-0.591,0.055-1.182,0.11-1.773,0.166c-0.302-3.196-0.604-6.392-0.906-9.588
		c0.915-0.087,1.83-0.172,2.744-0.255c1.286,2.383,2.564,4.77,3.833,7.158c0.823-2.574,1.656-5.146,2.496-7.717
		c0.907-0.076,1.813-0.152,2.721-0.227c0.262,3.199,0.524,6.398,0.786,9.599C72.322,220.722,71.731,220.771,71.14,220.821z
		 M74.743,220.526c-0.256-3.201-0.512-6.4-0.767-9.602c0.636-0.05,1.271-0.1,1.907-0.15c0.25,3.201,0.499,6.402,0.748,9.603
		C76.001,220.426,75.373,220.476,74.743,220.526z M78.467,220.235c-0.243-3.201-0.486-6.402-0.729-9.604
		c2.628-0.199,5.258-0.388,7.888-0.564c0.034,0.502,0.068,1.004,0.102,1.507c-1.99,0.134-3.98,0.274-5.97,0.422
		c0.06,0.808,0.12,1.614,0.179,2.421c1.904-0.141,3.809-0.275,5.714-0.404c0.034,0.502,0.068,1.005,0.102,1.508
		c-1.902,0.129-3.804,0.264-5.705,0.403c0.065,0.888,0.131,1.776,0.196,2.664c2.01-0.148,4.02-0.29,6.03-0.426
		c0.034,0.502,0.068,1.005,0.102,1.507C83.739,219.847,81.103,220.036,78.467,220.235z M94.684,219.146
		c-0.154-0.261-0.271-0.741-0.312-1.441c-0.081-1.373-0.314-2.333-1.707-2.249c-1.075,0.064-2.15,0.132-3.226,0.2
		c0.081,1.266,0.162,2.53,0.243,3.796c-0.63,0.04-1.26,0.081-1.89,0.123c-0.211-3.203-0.422-6.407-0.633-9.61
		c1.917-0.126,3.835-0.247,5.753-0.361c2.317-0.138,3.131,0.94,3.215,2.435c0.07,1.252-0.531,2.069-1.363,2.401
		c0,0.009,0.001,0.019,0.001,0.027c1.091,0.18,1.387,1.163,1.464,2.522c0.026,0.459,0.1,1.535,0.495,2.04
		C96.045,219.067,95.365,219.106,94.684,219.146z M98.056,218.956c-0.176-3.206-0.352-6.412-0.527-9.617
		c2.631-0.145,5.263-0.277,7.895-0.4c0.023,0.504,0.047,1.007,0.07,1.51c-1.992,0.093-3.984,0.191-5.976,0.297
		c0.043,0.808,0.085,1.615,0.128,2.424c1.907-0.101,3.813-0.195,5.72-0.285c0.023,0.504,0.047,1.007,0.07,1.51
		c-1.904,0.089-3.807,0.184-5.71,0.284c0.047,0.89,0.094,1.778,0.141,2.667c2.012-0.105,4.023-0.205,6.035-0.299
		c0.023,0.503,0.047,1.006,0.07,1.509C103.333,218.677,100.694,218.811,98.056,218.956z M116.627,218.392
		c-3.805,0.135-5.389-2.171-5.501-4.881c-0.112-2.708,1.294-5.146,5.146-5.283c3.852-0.133,5.424,2.201,5.502,4.91
		C121.851,215.85,120.432,218.261,116.627,218.392z M123.245,217.913c-0.089-3.209-0.179-6.418-0.269-9.627
		c0.637-0.018,1.274-0.035,1.912-0.051c0.069,2.679,0.139,5.357,0.208,8.036c1.828-0.048,3.656-0.089,5.484-0.126
		c0.011,0.531,0.021,1.061,0.032,1.592C128.156,217.786,125.7,217.845,123.245,217.913z M136.964,217.632
		c-1.771,0.023-3.541,0.052-5.311,0.085c-0.061-3.21-0.122-6.419-0.182-9.629c1.636-0.031,3.271-0.058,4.907-0.08
		c3.571-0.047,4.468,2.108,4.492,4.858C140.888,214.945,140.028,217.593,136.964,217.632z M142.396,217.575
		c-0.024-3.21-0.048-6.42-0.072-9.631c0.637-0.004,1.275-0.008,1.912-0.012c0.017,3.211,0.035,6.42,0.052,9.631
		C143.657,217.566,143.026,217.571,142.396,217.575z M154.052,217.562c-2.642-0.014-5.283-0.016-7.924-0.006
		c-0.011-3.211-0.022-6.421-0.033-9.631c2.634-0.01,5.268-0.008,7.903,0.006c-0.002,0.503-0.005,1.006-0.008,1.51
		c-1.993-0.01-3.987-0.013-5.981-0.01c0.001,0.809,0.002,1.618,0.003,2.428c1.909-0.003,3.817,0,5.726,0.009
		c-0.003,0.504-0.005,1.007-0.008,1.511c-1.904-0.009-3.81-0.012-5.715-0.01c0.001,0.891,0.002,1.781,0.003,2.672
		c2.014-0.003,4.027,0,6.041,0.011C154.056,216.554,154.054,217.058,154.052,217.562z M159.342,217.872
		c-3.24-0.033-4.532-1.398-4.546-3.422c0.684,0.004,1.367,0.008,2.051,0.014c0.041,1.268,1.021,1.882,2.574,1.898
		c1.149,0.013,2.229-0.338,2.242-1.39c0.029-2.395-6.653-0.38-6.63-4.326c0.012-2.144,1.815-2.971,4.034-2.948
		c1.402,0.013,4.205,0.322,4.404,3.118c-0.687-0.011-1.373-0.021-2.059-0.028c-0.054-0.742-0.68-1.562-2.271-1.578
		c-1.273-0.013-2.117,0.398-2.124,1.303c-0.021,2.259,6.761,0.166,6.698,4.287C163.677,217.28,161.259,217.892,159.342,217.872z
		 M178.657,213.284c-0.066,2.078-1.031,4.688-4.095,4.604c-1.771-0.048-3.54-0.091-5.311-0.128c0.067-3.209,0.136-6.419,0.204-9.629
		c1.636,0.035,3.271,0.074,4.906,0.117C177.933,208.345,178.743,210.536,178.657,213.284z M187.116,218.311
		c-0.282-0.808-0.566-1.616-0.852-2.423c-1.416-0.057-2.832-0.108-4.248-0.158c-0.339,0.785-0.678,1.57-1.016,2.354
		c-0.681-0.022-1.361-0.046-2.043-0.067c1.438-3.166,2.891-6.329,4.355-9.488c0.756,0.027,1.512,0.055,2.268,0.084
		c1.229,3.26,2.441,6.521,3.642,9.785C188.521,218.368,187.819,218.339,187.116,218.311z M199.39,218.886
		c-0.711-0.037-1.42-0.074-2.131-0.111c-1.675-2.498-3.363-4.992-5.066-7.482c-0.009,0-0.018-0.001-0.025-0.002
		c-0.109,2.408-0.219,4.815-0.328,7.223c-0.605-0.027-1.211-0.054-1.815-0.08c0.14-3.207,0.278-6.414,0.418-9.622
		c0.729,0.032,1.46,0.064,2.19,0.098c1.694,2.49,3.375,4.985,5.041,7.483c0.008,0.001,0.017,0.002,0.025,0.002
		c0.124-2.406,0.248-4.813,0.372-7.221c0.61,0.031,1.222,0.064,1.833,0.097C199.732,212.476,199.561,215.681,199.39,218.886z
		 M205.923,218.015c1.967,0.119,2.713-1.264,2.93-2.264c0.683,0.043,1.365,0.087,2.049,0.132c-0.393,1.896-1.696,3.845-5.398,3.62
		c-3.246-0.193-4.667-2.645-4.52-5.353c0.146-2.706,1.779-4.999,5.359-4.785c3.135,0.189,4.648,2.05,4.715,4.136
		c-0.686-0.045-1.369-0.09-2.055-0.133c-0.098-1.467-1.175-2.399-2.776-2.496c-1.756-0.105-3.136,1.059-3.277,3.564
		C202.835,216.442,204.056,217.903,205.923,218.015z M220.597,212.118c-1.989-0.15-3.979-0.294-5.969-0.432
		c-0.057,0.807-0.112,1.614-0.168,2.422c1.904,0.132,3.81,0.27,5.714,0.413c-0.038,0.502-0.075,1.004-0.113,1.507
		c-1.901-0.145-3.804-0.281-5.705-0.413c-0.062,0.888-0.123,1.776-0.185,2.665c2.01,0.139,4.02,0.284,6.029,0.437
		c-0.038,0.502-0.076,1.005-0.114,1.507c-2.636-0.2-5.271-0.389-7.908-0.565c0.215-3.203,0.431-6.406,0.646-9.609
		c2.63,0.177,5.26,0.364,7.888,0.563C220.673,211.114,220.636,211.616,220.597,212.118z M235.121,218.64
		c-0.099,1.074-0.888,2.76-3.314,2.545c-1.958-0.173-3.917-0.34-5.876-0.5c0.262-3.2,0.524-6.399,0.787-9.6c2,0.164,4,0.335,6,0.512
		c2.072,0.184,2.499,1.402,2.387,2.625c-0.125,1.37-0.907,1.691-1.408,1.891C234.371,216.403,235.27,217.027,235.121,218.64z
		 M243.507,222.292c-0.234-0.823-0.47-1.646-0.705-2.471c-1.412-0.141-2.823-0.279-4.235-0.413
		c-0.387,0.763-0.772,1.525-1.157,2.288c-0.679-0.064-1.357-0.127-2.037-0.189c1.628-3.074,3.27-6.144,4.924-9.209
		c0.754,0.072,1.508,0.146,2.262,0.221c1.03,3.328,2.046,6.657,3.048,9.988C244.906,222.435,244.206,222.363,243.507,222.292z
		 M255.737,223.608c-0.707-0.08-1.415-0.16-2.122-0.24c-1.523-2.596-3.062-5.188-4.613-7.775c-0.009-0.001-0.017-0.002-0.025-0.002
		c-0.255,2.396-0.509,4.793-0.763,7.189c-0.604-0.064-1.206-0.128-1.81-0.191c0.333-3.192,0.665-6.385,0.998-9.578
		c0.728,0.076,1.455,0.152,2.183,0.229c1.543,2.589,3.072,5.181,4.587,7.775c0.009,0.001,0.017,0.001,0.025,0.003
		c0.27-2.396,0.538-4.79,0.808-7.186c0.608,0.068,1.217,0.138,1.826,0.207C256.467,217.229,256.102,220.419,255.737,223.608z
		 M267.366,220.253c-0.262,2.062-1.473,4.569-4.519,4.196c-1.761-0.215-3.522-0.425-5.284-0.63c0.371-3.188,0.741-6.377,1.112-9.566
		c1.628,0.189,3.255,0.383,4.882,0.58C267.108,215.268,267.712,217.524,267.366,220.253z"/>
	<path fill="#D8A98D" d="M239.278,217.958c1.035,0.1,2.07,0.201,3.105,0.304c-0.379-1.397-0.761-2.795-1.145-4.192
		C240.583,215.365,239.93,216.661,239.278,217.958z"/>
	<path fill="#D8A98D" d="M231.722,213.026c-1.074-0.095-2.148-0.188-3.224-0.277c-0.067,0.798-0.134,1.596-0.201,2.393
		c1.182,0.1,2.363,0.201,3.545,0.305c0.531,0.047,1.239-0.025,1.336-1.114C233.249,213.54,232.825,213.122,231.722,213.026z"/>
</g>
<g>
	<text transform="matrix(1 0 0 1 68.0122 46.2437)" fill="#0E8369" font-family="'NHaasGroteskDSStd-65Md'" font-size="52.2004">HELLO</text>
	<text transform="matrix(1 0 0 1 65.7896 44.7617)" fill="#76B793" font-family="'NHaasGroteskDSStd-65Md'" font-size="52.2004">HELLO</text>
</g>
<g>
	<path fill-rule="evenodd" clip-rule="evenodd" fill="#0E8369" d="M225.543,113.99c6.051-9.026,11.978-17.863,18.02-26.875
		c8.908,3.883,17.666,7.698,26.806,11.682c-2.095,3.183-4.073,6.217-6.079,9.232c-4.369,6.567-8.762,13.117-13.126,19.686
		c-2.611,3.933-8.354,4.777-12.041,1.742c-2.561-2.106-2.269-5.207,0.641-6.812c3.488-1.924,7.399-1.137,11.638,2.459
		c5.124-7.667,10.233-15.312,15.548-23.264c-8.237-3.604-16.249-7.109-24.559-10.745c-2.702,4.007-5.402,7.983-8.073,11.98
		c-3.038,4.545-6.02,9.127-9.077,13.659c-2.604,3.861-8.685,4.461-12.096,1.25c-2.359-2.221-1.968-5.072,0.902-6.599
		C217.657,109.47,221.789,110.328,225.543,113.99z"/>
	<path fill-rule="evenodd" clip-rule="evenodd" fill="#76B793" d="M224.789,111.884c6.052-9.026,11.979-17.863,18.02-26.875
		c8.909,3.883,17.667,7.698,26.807,11.682c-2.095,3.183-4.073,6.217-6.08,9.232c-4.368,6.566-8.761,13.117-13.125,19.685
		c-2.612,3.932-8.354,4.777-12.042,1.743c-2.56-2.106-2.269-5.207,0.642-6.812c3.488-1.925,7.398-1.137,11.637,2.459
		c5.125-7.667,10.234-15.312,15.549-23.264c-8.238-3.604-16.25-7.109-24.559-10.745c-2.702,4.006-5.402,7.983-8.073,11.98
		c-3.038,4.545-6.021,9.127-9.078,13.659c-2.604,3.861-8.685,4.461-12.096,1.25c-2.358-2.221-1.968-5.072,0.902-6.599
		C216.903,107.364,221.035,108.222,224.789,111.884z"/>
</g>
<g>
	<path fill-rule="evenodd" clip-rule="evenodd" fill="#0E8369" d="M41.796,131.828c-3.509-10.285-6.943-20.355-10.446-30.624
		c8.489-4.73,16.833-9.381,25.542-14.234c1.261,3.596,2.474,7.009,3.656,10.432c2.573,7.456,5.119,14.92,7.696,22.374
		c1.543,4.46-1.266,9.54-5.916,10.632c-3.227,0.759-5.516-1.353-5.028-4.64c0.585-3.94,3.582-6.574,9.012-7.763
		c-2.99-8.723-5.972-17.422-9.073-26.469c-7.86,4.365-15.505,8.611-23.435,13.015c1.548,4.578,3.073,9.136,4.632,13.684
		c1.772,5.172,3.609,10.321,5.358,15.501c1.492,4.41-1.718,9.611-6.339,10.377c-3.196,0.529-5.227-1.512-4.701-4.719
		C33.42,135.358,36.608,132.593,41.796,131.828z"/>
	<path fill-rule="evenodd" clip-rule="evenodd" fill="#76B793" d="M39.665,131.151c-3.509-10.285-6.942-20.356-10.446-30.624
		c8.489-4.73,16.833-9.381,25.543-14.234c1.261,3.596,2.475,7.009,3.656,10.433c2.573,7.455,5.119,14.919,7.696,22.373
		c1.543,4.461-1.266,9.54-5.916,10.633c-3.227,0.758-5.516-1.353-5.028-4.64c0.584-3.941,3.582-6.573,9.011-7.763
		c-2.989-8.724-5.971-17.423-9.072-26.47c-7.861,4.366-15.506,8.612-23.435,13.015c1.548,4.578,3.073,9.137,4.632,13.684
		c1.772,5.172,3.608,10.322,5.358,15.501c1.492,4.411-1.718,9.611-6.339,10.377c-3.196,0.529-5.226-1.51-4.701-4.719
		C31.289,134.681,34.477,131.916,39.665,131.151z"/>
</g>
<rect x="68.013" y="56.242" fill-rule="evenodd" clip-rule="evenodd" fill="#76B793" width="159.33" height="2.224"/>
<g>
	<text transform="matrix(1 0 0 1 68.0142 95.9473)" fill="#9F786A" font-family="'LucidaHandwriting-Italic'" font-size="39.37">We Are</text>
	<text transform="matrix(1 0 0 1 66.5317 94.4648)" fill="#D8A98D" font-family="'LucidaHandwriting-Italic'" font-size="39.37">We Are</text>
</g>
</svg>
